<?xml version="1.0" encoding="utf-8" standalone="no"?>
<!DOCTYPE svg PUBLIC "-//W3C//DTD SVG 1.1//EN"
  "http://www.w3.org/Graphics/SVG/1.1/DTD/svg11.dtd">
<!-- Created with matplotlib (https://matplotlib.org/) -->
<svg height="248.518125pt" version="1.1" viewBox="0 0 372.103125 248.518125" width="372.103125pt" xmlns="http://www.w3.org/2000/svg" xmlns:xlink="http://www.w3.org/1999/xlink">
 <metadata>
  <rdf:RDF xmlns:cc="http://creativecommons.org/ns#" xmlns:dc="http://purl.org/dc/elements/1.1/" xmlns:rdf="http://www.w3.org/1999/02/22-rdf-syntax-ns#">
   <cc:Work>
    <dc:type rdf:resource="http://purl.org/dc/dcmitype/StillImage"/>
    <dc:date>2021-04-10T22:14:07.757607</dc:date>
    <dc:format>image/svg+xml</dc:format>
    <dc:creator>
     <cc:Agent>
      <dc:title>Matplotlib v3.3.4, https://matplotlib.org/</dc:title>
     </cc:Agent>
    </dc:creator>
   </cc:Work>
  </rdf:RDF>
 </metadata>
 <defs>
  <style type="text/css">*{stroke-linecap:butt;stroke-linejoin:round;}</style>
 </defs>
 <g id="figure_1">
  <g id="patch_1">
   <path d="M 0 248.518125 
L 372.103125 248.518125 
L 372.103125 0 
L 0 0 
z
" style="fill:none;"/>
  </g>
  <g id="axes_1">
   <g id="patch_2">
    <path d="M 30.103125 224.64 
L 364.903125 224.64 
L 364.903125 7.2 
L 30.103125 7.2 
z
" style="fill:#ffffff;"/>
   </g>
   <g id="PolyCollection_1">
    <defs>
     <path d="M 45.321307 -23.878206 
L 45.321307 -23.878125 
L 48.395687 -23.878125 
L 51.470067 -23.878125 
L 54.544447 -23.878125 
L 57.618827 -23.878125 
L 60.693208 -23.878126 
L 63.767588 -23.878127 
L 66.841968 -23.878131 
L 69.916348 -23.878139 
L 72.990728 -23.878158 
L 76.065108 -23.878201 
L 79.139489 -23.878297 
L 82.213869 -23.878507 
L 85.288249 -23.878946 
L 88.362629 -23.879827 
L 91.437009 -23.881578 
L 94.511389 -23.884977 
L 97.58577 -23.891587 
L 100.66015 -23.904183 
L 103.73453 -23.927401 
L 106.80891 -23.969147 
L 109.88329 -24.038639 
L 112.95767 -24.160222 
L 116.032051 -24.358964 
L 119.106431 -24.670347 
L 122.180811 -25.174777 
L 125.255191 -25.953547 
L 128.329571 -27.092109 
L 131.403951 -28.850457 
L 134.478332 -31.308468 
L 137.552712 -34.728439 
L 140.627092 -39.373735 
L 143.701472 -45.49598 
L 146.775852 -53.353517 
L 149.850232 -63.142139 
L 152.924613 -74.978657 
L 155.998993 -87.430249 
L 159.073373 -102.235248 
L 162.147753 -118.146771 
L 165.222133 -131.556962 
L 168.296513 -144.557163 
L 171.370894 -155.522899 
L 174.445274 -164.879253 
L 177.519654 -171.966547 
L 180.594034 -177.664082 
L 183.668414 -181.126129 
L 186.742794 -182.391084 
L 189.817175 -180.970543 
L 192.891555 -177.618566 
L 195.965935 -171.818227 
L 199.040315 -164.022736 
L 202.114695 -154.359207 
L 205.189075 -143.117451 
L 208.263456 -129.772923 
L 211.337836 -115.089307 
L 214.412216 -100.107146 
L 217.486596 -85.060378 
L 220.560976 -72.361675 
L 223.635356 -61.292595 
L 226.709737 -52.433601 
L 229.784117 -44.660216 
L 232.858497 -38.599681 
L 235.932877 -34.196271 
L 239.007257 -31.103252 
L 242.081637 -28.744725 
L 245.156018 -27.041194 
L 248.230398 -25.888509 
L 251.304778 -25.126447 
L 254.379158 -24.6354 
L 257.453538 -24.326936 
L 260.527918 -24.143251 
L 263.602299 -24.028343 
L 266.676679 -23.96106 
L 269.751059 -23.92286 
L 272.825439 -23.901711 
L 275.899819 -23.890412 
L 278.974199 -23.884415 
L 282.04858 -23.881274 
L 285.12296 -23.879666 
L 288.19734 -23.878863 
L 291.27172 -23.878471 
L 294.3461 -23.878283 
L 297.42048 -23.878195 
L 300.494861 -23.878155 
L 303.569241 -23.878138 
L 306.643621 -23.87813 
L 309.718001 -23.878127 
L 312.792381 -23.878126 
L 315.866761 -23.878125 
L 318.941142 -23.878125 
L 322.015522 -23.878125 
L 325.089902 -23.878125 
L 328.164282 -23.878125 
L 331.238662 -23.878125 
L 334.313042 -23.878125 
L 337.387423 -23.878125 
L 340.461803 -23.878125 
L 343.536183 -23.878125 
L 346.610563 -23.878125 
L 349.684943 -23.878125 
L 349.684943 -23.878126 
L 349.684943 -23.878126 
L 346.610563 -23.878127 
L 343.536183 -23.878128 
L 340.461803 -23.878131 
L 337.387423 -23.878137 
L 334.313042 -23.878147 
L 331.238662 -23.878167 
L 328.164282 -23.878204 
L 325.089902 -23.878273 
L 322.015522 -23.878399 
L 318.941142 -23.878626 
L 315.866761 -23.879028 
L 312.792381 -23.879732 
L 309.718001 -23.880944 
L 306.643621 -23.883001 
L 303.569241 -23.886441 
L 300.494861 -23.892109 
L 297.42048 -23.901312 
L 294.3461 -23.915851 
L 291.27172 -23.938633 
L 288.19734 -23.973847 
L 285.12296 -24.027485 
L 282.04858 -24.107994 
L 278.974199 -24.227062 
L 275.899819 -24.400314 
L 272.825439 -24.648699 
L 269.751059 -24.999748 
L 266.676679 -25.481004 
L 263.602299 -26.143331 
L 260.527918 -27.060959 
L 257.453538 -28.245027 
L 254.379158 -29.760334 
L 251.304778 -31.867561 
L 248.230398 -34.482373 
L 245.156018 -37.687621 
L 242.081637 -41.545496 
L 239.007257 -46.320569 
L 235.932877 -52.088569 
L 232.858497 -58.805941 
L 229.784117 -66.427545 
L 226.709737 -75.433221 
L 223.635356 -84.878851 
L 220.560976 -95.487186 
L 217.486596 -107.534204 
L 214.412216 -119.916057 
L 211.337836 -133.80927 
L 208.263456 -147.679035 
L 205.189075 -163.235701 
L 202.114695 -179.196939 
L 199.040315 -194.158906 
L 195.965935 -207.622027 
L 192.891555 -219.209379 
L 189.817175 -226.341206 
L 186.742794 -229.94404 
L 183.668414 -226.827576 
L 180.594034 -220.160862 
L 177.519654 -209.055229 
L 174.445274 -196.778571 
L 171.370894 -181.338605 
L 168.296513 -166.403474 
L 165.222133 -150.886478 
L 162.147753 -135.98399 
L 159.073373 -121.929384 
L 155.998993 -108.798607 
L 152.924613 -97.251517 
L 149.850232 -86.003411 
L 146.775852 -76.086949 
L 143.701472 -67.545136 
L 140.627092 -59.367257 
L 137.552712 -52.470657 
L 134.478332 -46.718172 
L 131.403951 -41.926284 
L 128.329571 -37.890143 
L 125.255191 -34.627798 
L 122.180811 -32.012544 
L 119.106431 -29.949605 
L 116.032051 -28.34804 
L 112.95767 -27.124067 
L 109.88329 -26.203104 
L 106.80891 -25.520178 
L 103.73453 -25.019309 
L 100.66015 -24.66026 
L 97.58577 -24.406771 
L 94.511389 -24.2305 
L 91.437009 -24.109759 
L 88.362629 -24.028286 
L 85.288249 -23.974125 
L 82.213869 -23.938651 
L 79.139489 -23.915758 
L 76.065108 -23.901201 
L 72.990728 -23.892079 
L 69.916348 -23.886446 
L 66.841968 -23.883019 
L 63.767588 -23.880963 
L 60.693208 -23.879748 
L 57.618827 -23.879041 
L 54.544447 -23.878634 
L 51.470067 -23.878404 
L 48.395687 -23.878276 
L 45.321307 -23.878206 
z
" id="m666887d29d" style="stroke:#000000;stroke-opacity:0.3;"/>
    </defs>
    <g clip-path="url(#p33e265bd89)">
     <use style="fill-opacity:0.3;stroke:#000000;stroke-opacity:0.3;" x="0" xlink:href="#m666887d29d" y="248.518125"/>
    </g>
   </g>
   <g id="patch_3">
    <path clip-path="url(#p33e265bd89)" d="M 45.321307 224.64 
L 48.395687 224.64 
L 48.395687 224.64 
L 45.321307 224.64 
z
" style="fill:#1f77b4;opacity:0.3;"/>
   </g>
   <g id="patch_4">
    <path clip-path="url(#p33e265bd89)" d="M 48.395687 224.64 
L 51.470067 224.64 
L 51.470067 224.64 
L 48.395687 224.64 
z
" style="fill:#1f77b4;opacity:0.3;"/>
   </g>
   <g id="patch_5">
    <path clip-path="url(#p33e265bd89)" d="M 51.470067 224.64 
L 54.544447 224.64 
L 54.544447 224.64 
L 51.470067 224.64 
z
" style="fill:#1f77b4;opacity:0.3;"/>
   </g>
   <g id="patch_6">
    <path clip-path="url(#p33e265bd89)" d="M 54.544447 224.64 
L 57.618827 224.64 
L 57.618827 224.64 
L 54.544447 224.64 
z
" style="fill:#1f77b4;opacity:0.3;"/>
   </g>
   <g id="patch_7">
    <path clip-path="url(#p33e265bd89)" d="M 57.618827 224.64 
L 60.693208 224.64 
L 60.693208 224.64 
L 57.618827 224.64 
z
" style="fill:#1f77b4;opacity:0.3;"/>
   </g>
   <g id="patch_8">
    <path clip-path="url(#p33e265bd89)" d="M 60.693208 224.64 
L 63.767588 224.64 
L 63.767588 224.64 
L 60.693208 224.64 
z
" style="fill:#1f77b4;opacity:0.3;"/>
   </g>
   <g id="patch_9">
    <path clip-path="url(#p33e265bd89)" d="M 63.767588 224.64 
L 66.841968 224.64 
L 66.841968 224.64 
L 63.767588 224.64 
z
" style="fill:#1f77b4;opacity:0.3;"/>
   </g>
   <g id="patch_10">
    <path clip-path="url(#p33e265bd89)" d="M 66.841968 224.64 
L 69.916348 224.64 
L 69.916348 224.64 
L 66.841968 224.64 
z
" style="fill:#1f77b4;opacity:0.3;"/>
   </g>
   <g id="patch_11">
    <path clip-path="url(#p33e265bd89)" d="M 69.916348 224.64 
L 72.990728 224.64 
L 72.990728 224.64 
L 69.916348 224.64 
z
" style="fill:#1f77b4;opacity:0.3;"/>
   </g>
   <g id="patch_12">
    <path clip-path="url(#p33e265bd89)" d="M 72.990728 224.64 
L 76.065108 224.64 
L 76.065108 224.64 
L 72.990728 224.64 
z
" style="fill:#1f77b4;opacity:0.3;"/>
   </g>
   <g id="patch_13">
    <path clip-path="url(#p33e265bd89)" d="M 76.065108 224.64 
L 79.139489 224.64 
L 79.139489 224.64 
L 76.065108 224.64 
z
" style="fill:#1f77b4;opacity:0.3;"/>
   </g>
   <g id="patch_14">
    <path clip-path="url(#p33e265bd89)" d="M 79.139489 224.64 
L 82.213869 224.64 
L 82.213869 224.64 
L 79.139489 224.64 
z
" style="fill:#1f77b4;opacity:0.3;"/>
   </g>
   <g id="patch_15">
    <path clip-path="url(#p33e265bd89)" d="M 82.213869 224.64 
L 85.288249 224.64 
L 85.288249 224.64 
L 82.213869 224.64 
z
" style="fill:#1f77b4;opacity:0.3;"/>
   </g>
   <g id="patch_16">
    <path clip-path="url(#p33e265bd89)" d="M 85.288249 224.64 
L 88.362629 224.64 
L 88.362629 224.64 
L 85.288249 224.64 
z
" style="fill:#1f77b4;opacity:0.3;"/>
   </g>
   <g id="patch_17">
    <path clip-path="url(#p33e265bd89)" d="M 88.362629 224.64 
L 91.437009 224.64 
L 91.437009 224.64 
L 88.362629 224.64 
z
" style="fill:#1f77b4;opacity:0.3;"/>
   </g>
   <g id="patch_18">
    <path clip-path="url(#p33e265bd89)" d="M 91.437009 224.64 
L 94.511389 224.64 
L 94.511389 224.64 
L 91.437009 224.64 
z
" style="fill:#1f77b4;opacity:0.3;"/>
   </g>
   <g id="patch_19">
    <path clip-path="url(#p33e265bd89)" d="M 94.511389 224.64 
L 97.58577 224.64 
L 97.58577 224.64 
L 94.511389 224.64 
z
" style="fill:#1f77b4;opacity:0.3;"/>
   </g>
   <g id="patch_20">
    <path clip-path="url(#p33e265bd89)" d="M 97.58577 224.64 
L 100.66015 224.64 
L 100.66015 224.64 
L 97.58577 224.64 
z
" style="fill:#1f77b4;opacity:0.3;"/>
   </g>
   <g id="patch_21">
    <path clip-path="url(#p33e265bd89)" d="M 100.66015 224.64 
L 103.73453 224.64 
L 103.73453 222.942576 
L 100.66015 222.942576 
z
" style="fill:#1f77b4;opacity:0.3;"/>
   </g>
   <g id="patch_22">
    <path clip-path="url(#p33e265bd89)" d="M 103.73453 224.64 
L 106.80891 224.64 
L 106.80891 224.64 
L 103.73453 224.64 
z
" style="fill:#1f77b4;opacity:0.3;"/>
   </g>
   <g id="patch_23">
    <path clip-path="url(#p33e265bd89)" d="M 106.80891 224.64 
L 109.88329 224.64 
L 109.88329 224.64 
L 106.80891 224.64 
z
" style="fill:#1f77b4;opacity:0.3;"/>
   </g>
   <g id="patch_24">
    <path clip-path="url(#p33e265bd89)" d="M 109.88329 224.64 
L 112.95767 224.64 
L 112.95767 224.64 
L 109.88329 224.64 
z
" style="fill:#1f77b4;opacity:0.3;"/>
   </g>
   <g id="patch_25">
    <path clip-path="url(#p33e265bd89)" d="M 112.95767 224.64 
L 116.032051 224.64 
L 116.032051 222.942576 
L 112.95767 222.942576 
z
" style="fill:#1f77b4;opacity:0.3;"/>
   </g>
   <g id="patch_26">
    <path clip-path="url(#p33e265bd89)" d="M 116.032051 224.64 
L 119.106431 224.64 
L 119.106431 222.942576 
L 116.032051 222.942576 
z
" style="fill:#1f77b4;opacity:0.3;"/>
   </g>
   <g id="patch_27">
    <path clip-path="url(#p33e265bd89)" d="M 119.106431 224.64 
L 122.180811 224.64 
L 122.180811 222.942576 
L 119.106431 222.942576 
z
" style="fill:#1f77b4;opacity:0.3;"/>
   </g>
   <g id="patch_28">
    <path clip-path="url(#p33e265bd89)" d="M 122.180811 224.64 
L 125.255191 224.64 
L 125.255191 219.547728 
L 122.180811 219.547728 
z
" style="fill:#1f77b4;opacity:0.3;"/>
   </g>
   <g id="patch_29">
    <path clip-path="url(#p33e265bd89)" d="M 125.255191 224.64 
L 128.329571 224.64 
L 128.329571 221.245152 
L 125.255191 221.245152 
z
" style="fill:#1f77b4;opacity:0.3;"/>
   </g>
   <g id="patch_30">
    <path clip-path="url(#p33e265bd89)" d="M 128.329571 224.64 
L 131.403951 224.64 
L 131.403951 217.850304 
L 128.329571 217.850304 
z
" style="fill:#1f77b4;opacity:0.3;"/>
   </g>
   <g id="patch_31">
    <path clip-path="url(#p33e265bd89)" d="M 131.403951 224.64 
L 134.478332 224.64 
L 134.478332 205.968337 
L 131.403951 205.968337 
z
" style="fill:#1f77b4;opacity:0.3;"/>
   </g>
   <g id="patch_32">
    <path clip-path="url(#p33e265bd89)" d="M 134.478332 224.64 
L 137.552712 224.64 
L 137.552712 207.665761 
L 134.478332 207.665761 
z
" style="fill:#1f77b4;opacity:0.3;"/>
   </g>
   <g id="patch_33">
    <path clip-path="url(#p33e265bd89)" d="M 137.552712 224.64 
L 140.627092 224.64 
L 140.627092 202.573489 
L 137.552712 202.573489 
z
" style="fill:#1f77b4;opacity:0.3;"/>
   </g>
   <g id="patch_34">
    <path clip-path="url(#p33e265bd89)" d="M 140.627092 224.64 
L 143.701472 224.64 
L 143.701472 199.178642 
L 140.627092 199.178642 
z
" style="fill:#1f77b4;opacity:0.3;"/>
   </g>
   <g id="patch_35">
    <path clip-path="url(#p33e265bd89)" d="M 143.701472 224.64 
L 146.775852 224.64 
L 146.775852 202.573489 
L 143.701472 202.573489 
z
" style="fill:#1f77b4;opacity:0.3;"/>
   </g>
   <g id="patch_36">
    <path clip-path="url(#p33e265bd89)" d="M 146.775852 224.64 
L 149.850232 224.64 
L 149.850232 180.506979 
L 146.775852 180.506979 
z
" style="fill:#1f77b4;opacity:0.3;"/>
   </g>
   <g id="patch_37">
    <path clip-path="url(#p33e265bd89)" d="M 149.850232 224.64 
L 152.924613 224.64 
L 152.924613 170.322436 
L 149.850232 170.322436 
z
" style="fill:#1f77b4;opacity:0.3;"/>
   </g>
   <g id="patch_38">
    <path clip-path="url(#p33e265bd89)" d="M 152.924613 224.64 
L 155.998993 224.64 
L 155.998993 172.019859 
L 152.924613 172.019859 
z
" style="fill:#1f77b4;opacity:0.3;"/>
   </g>
   <g id="patch_39">
    <path clip-path="url(#p33e265bd89)" d="M 155.998993 224.64 
L 159.073373 224.64 
L 159.073373 136.373958 
L 155.998993 136.373958 
z
" style="fill:#1f77b4;opacity:0.3;"/>
   </g>
   <g id="patch_40">
    <path clip-path="url(#p33e265bd89)" d="M 159.073373 224.64 
L 162.147753 224.64 
L 162.147753 105.820328 
L 159.073373 105.820328 
z
" style="fill:#1f77b4;opacity:0.3;"/>
   </g>
   <g id="patch_41">
    <path clip-path="url(#p33e265bd89)" d="M 162.147753 224.64 
L 165.222133 224.64 
L 165.222133 85.451241 
L 162.147753 85.451241 
z
" style="fill:#1f77b4;opacity:0.3;"/>
   </g>
   <g id="patch_42">
    <path clip-path="url(#p33e265bd89)" d="M 165.222133 224.64 
L 168.296513 224.64 
L 168.296513 104.122904 
L 165.222133 104.122904 
z
" style="fill:#1f77b4;opacity:0.3;"/>
   </g>
   <g id="patch_43">
    <path clip-path="url(#p33e265bd89)" d="M 168.296513 224.64 
L 171.370894 224.64 
L 171.370894 85.451241 
L 168.296513 85.451241 
z
" style="fill:#1f77b4;opacity:0.3;"/>
   </g>
   <g id="patch_44">
    <path clip-path="url(#p33e265bd89)" d="M 171.370894 224.64 
L 174.445274 224.64 
L 174.445274 49.80534 
L 171.370894 49.80534 
z
" style="fill:#1f77b4;opacity:0.3;"/>
   </g>
   <g id="patch_45">
    <path clip-path="url(#p33e265bd89)" d="M 174.445274 224.64 
L 177.519654 224.64 
L 177.519654 59.989883 
L 174.445274 59.989883 
z
" style="fill:#1f77b4;opacity:0.3;"/>
   </g>
   <g id="patch_46">
    <path clip-path="url(#p33e265bd89)" d="M 177.519654 224.64 
L 180.594034 224.64 
L 180.594034 65.082155 
L 177.519654 65.082155 
z
" style="fill:#1f77b4;opacity:0.3;"/>
   </g>
   <g id="patch_47">
    <path clip-path="url(#p33e265bd89)" d="M 180.594034 224.64 
L 183.668414 224.64 
L 183.668414 17.554286 
L 180.594034 17.554286 
z
" style="fill:#1f77b4;opacity:0.3;"/>
   </g>
   <g id="patch_48">
    <path clip-path="url(#p33e265bd89)" d="M 183.668414 224.64 
L 186.742794 224.64 
L 186.742794 54.897611 
L 183.668414 54.897611 
z
" style="fill:#1f77b4;opacity:0.3;"/>
   </g>
   <g id="patch_49">
    <path clip-path="url(#p33e265bd89)" d="M 186.742794 224.64 
L 189.817175 224.64 
L 189.817175 43.015644 
L 186.742794 43.015644 
z
" style="fill:#1f77b4;opacity:0.3;"/>
   </g>
   <g id="patch_50">
    <path clip-path="url(#p33e265bd89)" d="M 189.817175 224.64 
L 192.891555 224.64 
L 192.891555 63.384731 
L 189.817175 63.384731 
z
" style="fill:#1f77b4;opacity:0.3;"/>
   </g>
   <g id="patch_51">
    <path clip-path="url(#p33e265bd89)" d="M 192.891555 224.64 
L 195.965935 224.64 
L 195.965935 66.779578 
L 192.891555 66.779578 
z
" style="fill:#1f77b4;opacity:0.3;"/>
   </g>
   <g id="patch_52">
    <path clip-path="url(#p33e265bd89)" d="M 195.965935 224.64 
L 199.040315 224.64 
L 199.040315 73.569274 
L 195.965935 73.569274 
z
" style="fill:#1f77b4;opacity:0.3;"/>
   </g>
   <g id="patch_53">
    <path clip-path="url(#p33e265bd89)" d="M 199.040315 224.64 
L 202.114695 224.64 
L 202.114695 73.569274 
L 199.040315 73.569274 
z
" style="fill:#1f77b4;opacity:0.3;"/>
   </g>
   <g id="patch_54">
    <path clip-path="url(#p33e265bd89)" d="M 202.114695 224.64 
L 205.189075 224.64 
L 205.189075 71.87185 
L 202.114695 71.87185 
z
" style="fill:#1f77b4;opacity:0.3;"/>
   </g>
   <g id="patch_55">
    <path clip-path="url(#p33e265bd89)" d="M 205.189075 224.64 
L 208.263456 224.64 
L 208.263456 102.42548 
L 205.189075 102.42548 
z
" style="fill:#1f77b4;opacity:0.3;"/>
   </g>
   <g id="patch_56">
    <path clip-path="url(#p33e265bd89)" d="M 208.263456 224.64 
L 211.337836 224.64 
L 211.337836 97.333208 
L 208.263456 97.333208 
z
" style="fill:#1f77b4;opacity:0.3;"/>
   </g>
   <g id="patch_57">
    <path clip-path="url(#p33e265bd89)" d="M 211.337836 224.64 
L 214.412216 224.64 
L 214.412216 127.886838 
L 211.337836 127.886838 
z
" style="fill:#1f77b4;opacity:0.3;"/>
   </g>
   <g id="patch_58">
    <path clip-path="url(#p33e265bd89)" d="M 214.412216 224.64 
L 217.486596 224.64 
L 217.486596 139.768806 
L 214.412216 139.768806 
z
" style="fill:#1f77b4;opacity:0.3;"/>
   </g>
   <g id="patch_59">
    <path clip-path="url(#p33e265bd89)" d="M 217.486596 224.64 
L 220.560976 224.64 
L 220.560976 175.414707 
L 217.486596 175.414707 
z
" style="fill:#1f77b4;opacity:0.3;"/>
   </g>
   <g id="patch_60">
    <path clip-path="url(#p33e265bd89)" d="M 220.560976 224.64 
L 223.635356 224.64 
L 223.635356 175.414707 
L 220.560976 175.414707 
z
" style="fill:#1f77b4;opacity:0.3;"/>
   </g>
   <g id="patch_61">
    <path clip-path="url(#p33e265bd89)" d="M 223.635356 224.64 
L 226.709737 224.64 
L 226.709737 188.994098 
L 223.635356 188.994098 
z
" style="fill:#1f77b4;opacity:0.3;"/>
   </g>
   <g id="patch_62">
    <path clip-path="url(#p33e265bd89)" d="M 226.709737 224.64 
L 229.784117 224.64 
L 229.784117 195.783794 
L 226.709737 195.783794 
z
" style="fill:#1f77b4;opacity:0.3;"/>
   </g>
   <g id="patch_63">
    <path clip-path="url(#p33e265bd89)" d="M 229.784117 224.64 
L 232.858497 224.64 
L 232.858497 199.178642 
L 229.784117 199.178642 
z
" style="fill:#1f77b4;opacity:0.3;"/>
   </g>
   <g id="patch_64">
    <path clip-path="url(#p33e265bd89)" d="M 232.858497 224.64 
L 235.932877 224.64 
L 235.932877 214.455457 
L 232.858497 214.455457 
z
" style="fill:#1f77b4;opacity:0.3;"/>
   </g>
   <g id="patch_65">
    <path clip-path="url(#p33e265bd89)" d="M 235.932877 224.64 
L 239.007257 224.64 
L 239.007257 214.455457 
L 235.932877 214.455457 
z
" style="fill:#1f77b4;opacity:0.3;"/>
   </g>
   <g id="patch_66">
    <path clip-path="url(#p33e265bd89)" d="M 239.007257 224.64 
L 242.081637 224.64 
L 242.081637 212.758033 
L 239.007257 212.758033 
z
" style="fill:#1f77b4;opacity:0.3;"/>
   </g>
   <g id="patch_67">
    <path clip-path="url(#p33e265bd89)" d="M 242.081637 224.64 
L 245.156018 224.64 
L 245.156018 216.152881 
L 242.081637 216.152881 
z
" style="fill:#1f77b4;opacity:0.3;"/>
   </g>
   <g id="patch_68">
    <path clip-path="url(#p33e265bd89)" d="M 245.156018 224.64 
L 248.230398 224.64 
L 248.230398 216.152881 
L 245.156018 216.152881 
z
" style="fill:#1f77b4;opacity:0.3;"/>
   </g>
   <g id="patch_69">
    <path clip-path="url(#p33e265bd89)" d="M 248.230398 224.64 
L 251.304778 224.64 
L 251.304778 219.547728 
L 248.230398 219.547728 
z
" style="fill:#1f77b4;opacity:0.3;"/>
   </g>
   <g id="patch_70">
    <path clip-path="url(#p33e265bd89)" d="M 251.304778 224.64 
L 254.379158 224.64 
L 254.379158 221.245152 
L 251.304778 221.245152 
z
" style="fill:#1f77b4;opacity:0.3;"/>
   </g>
   <g id="patch_71">
    <path clip-path="url(#p33e265bd89)" d="M 254.379158 224.64 
L 257.453538 224.64 
L 257.453538 222.942576 
L 254.379158 222.942576 
z
" style="fill:#1f77b4;opacity:0.3;"/>
   </g>
   <g id="patch_72">
    <path clip-path="url(#p33e265bd89)" d="M 257.453538 224.64 
L 260.527918 224.64 
L 260.527918 224.64 
L 257.453538 224.64 
z
" style="fill:#1f77b4;opacity:0.3;"/>
   </g>
   <g id="patch_73">
    <path clip-path="url(#p33e265bd89)" d="M 260.527918 224.64 
L 263.602299 224.64 
L 263.602299 224.64 
L 260.527918 224.64 
z
" style="fill:#1f77b4;opacity:0.3;"/>
   </g>
   <g id="patch_74">
    <path clip-path="url(#p33e265bd89)" d="M 263.602299 224.64 
L 266.676679 224.64 
L 266.676679 224.64 
L 263.602299 224.64 
z
" style="fill:#1f77b4;opacity:0.3;"/>
   </g>
   <g id="patch_75">
    <path clip-path="url(#p33e265bd89)" d="M 266.676679 224.64 
L 269.751059 224.64 
L 269.751059 224.64 
L 266.676679 224.64 
z
" style="fill:#1f77b4;opacity:0.3;"/>
   </g>
   <g id="patch_76">
    <path clip-path="url(#p33e265bd89)" d="M 269.751059 224.64 
L 272.825439 224.64 
L 272.825439 224.64 
L 269.751059 224.64 
z
" style="fill:#1f77b4;opacity:0.3;"/>
   </g>
   <g id="patch_77">
    <path clip-path="url(#p33e265bd89)" d="M 272.825439 224.64 
L 275.899819 224.64 
L 275.899819 224.64 
L 272.825439 224.64 
z
" style="fill:#1f77b4;opacity:0.3;"/>
   </g>
   <g id="patch_78">
    <path clip-path="url(#p33e265bd89)" d="M 275.899819 224.64 
L 278.974199 224.64 
L 278.974199 224.64 
L 275.899819 224.64 
z
" style="fill:#1f77b4;opacity:0.3;"/>
   </g>
   <g id="patch_79">
    <path clip-path="url(#p33e265bd89)" d="M 278.974199 224.64 
L 282.04858 224.64 
L 282.04858 224.64 
L 278.974199 224.64 
z
" style="fill:#1f77b4;opacity:0.3;"/>
   </g>
   <g id="patch_80">
    <path clip-path="url(#p33e265bd89)" d="M 282.04858 224.64 
L 285.12296 224.64 
L 285.12296 224.64 
L 282.04858 224.64 
z
" style="fill:#1f77b4;opacity:0.3;"/>
   </g>
   <g id="patch_81">
    <path clip-path="url(#p33e265bd89)" d="M 285.12296 224.64 
L 288.19734 224.64 
L 288.19734 224.64 
L 285.12296 224.64 
z
" style="fill:#1f77b4;opacity:0.3;"/>
   </g>
   <g id="patch_82">
    <path clip-path="url(#p33e265bd89)" d="M 288.19734 224.64 
L 291.27172 224.64 
L 291.27172 224.64 
L 288.19734 224.64 
z
" style="fill:#1f77b4;opacity:0.3;"/>
   </g>
   <g id="patch_83">
    <path clip-path="url(#p33e265bd89)" d="M 291.27172 224.64 
L 294.3461 224.64 
L 294.3461 224.64 
L 291.27172 224.64 
z
" style="fill:#1f77b4;opacity:0.3;"/>
   </g>
   <g id="patch_84">
    <path clip-path="url(#p33e265bd89)" d="M 294.3461 224.64 
L 297.42048 224.64 
L 297.42048 224.64 
L 294.3461 224.64 
z
" style="fill:#1f77b4;opacity:0.3;"/>
   </g>
   <g id="patch_85">
    <path clip-path="url(#p33e265bd89)" d="M 297.42048 224.64 
L 300.494861 224.64 
L 300.494861 224.64 
L 297.42048 224.64 
z
" style="fill:#1f77b4;opacity:0.3;"/>
   </g>
   <g id="patch_86">
    <path clip-path="url(#p33e265bd89)" d="M 300.494861 224.64 
L 303.569241 224.64 
L 303.569241 224.64 
L 300.494861 224.64 
z
" style="fill:#1f77b4;opacity:0.3;"/>
   </g>
   <g id="patch_87">
    <path clip-path="url(#p33e265bd89)" d="M 303.569241 224.64 
L 306.643621 224.64 
L 306.643621 224.64 
L 303.569241 224.64 
z
" style="fill:#1f77b4;opacity:0.3;"/>
   </g>
   <g id="patch_88">
    <path clip-path="url(#p33e265bd89)" d="M 306.643621 224.64 
L 309.718001 224.64 
L 309.718001 224.64 
L 306.643621 224.64 
z
" style="fill:#1f77b4;opacity:0.3;"/>
   </g>
   <g id="patch_89">
    <path clip-path="url(#p33e265bd89)" d="M 309.718001 224.64 
L 312.792381 224.64 
L 312.792381 224.64 
L 309.718001 224.64 
z
" style="fill:#1f77b4;opacity:0.3;"/>
   </g>
   <g id="patch_90">
    <path clip-path="url(#p33e265bd89)" d="M 312.792381 224.64 
L 315.866761 224.64 
L 315.866761 224.64 
L 312.792381 224.64 
z
" style="fill:#1f77b4;opacity:0.3;"/>
   </g>
   <g id="patch_91">
    <path clip-path="url(#p33e265bd89)" d="M 315.866761 224.64 
L 318.941142 224.64 
L 318.941142 224.64 
L 315.866761 224.64 
z
" style="fill:#1f77b4;opacity:0.3;"/>
   </g>
   <g id="patch_92">
    <path clip-path="url(#p33e265bd89)" d="M 318.941142 224.64 
L 322.015522 224.64 
L 322.015522 224.64 
L 318.941142 224.64 
z
" style="fill:#1f77b4;opacity:0.3;"/>
   </g>
   <g id="patch_93">
    <path clip-path="url(#p33e265bd89)" d="M 322.015522 224.64 
L 325.089902 224.64 
L 325.089902 224.64 
L 322.015522 224.64 
z
" style="fill:#1f77b4;opacity:0.3;"/>
   </g>
   <g id="patch_94">
    <path clip-path="url(#p33e265bd89)" d="M 325.089902 224.64 
L 328.164282 224.64 
L 328.164282 224.64 
L 325.089902 224.64 
z
" style="fill:#1f77b4;opacity:0.3;"/>
   </g>
   <g id="patch_95">
    <path clip-path="url(#p33e265bd89)" d="M 328.164282 224.64 
L 331.238662 224.64 
L 331.238662 224.64 
L 328.164282 224.64 
z
" style="fill:#1f77b4;opacity:0.3;"/>
   </g>
   <g id="patch_96">
    <path clip-path="url(#p33e265bd89)" d="M 331.238662 224.64 
L 334.313042 224.64 
L 334.313042 224.64 
L 331.238662 224.64 
z
" style="fill:#1f77b4;opacity:0.3;"/>
   </g>
   <g id="patch_97">
    <path clip-path="url(#p33e265bd89)" d="M 334.313042 224.64 
L 337.387423 224.64 
L 337.387423 224.64 
L 334.313042 224.64 
z
" style="fill:#1f77b4;opacity:0.3;"/>
   </g>
   <g id="patch_98">
    <path clip-path="url(#p33e265bd89)" d="M 337.387423 224.64 
L 340.461803 224.64 
L 340.461803 224.64 
L 337.387423 224.64 
z
" style="fill:#1f77b4;opacity:0.3;"/>
   </g>
   <g id="patch_99">
    <path clip-path="url(#p33e265bd89)" d="M 340.461803 224.64 
L 343.536183 224.64 
L 343.536183 224.64 
L 340.461803 224.64 
z
" style="fill:#1f77b4;opacity:0.3;"/>
   </g>
   <g id="patch_100">
    <path clip-path="url(#p33e265bd89)" d="M 343.536183 224.64 
L 346.610563 224.64 
L 346.610563 224.64 
L 343.536183 224.64 
z
" style="fill:#1f77b4;opacity:0.3;"/>
   </g>
   <g id="patch_101">
    <path clip-path="url(#p33e265bd89)" d="M 346.610563 224.64 
L 349.684943 224.64 
L 349.684943 224.64 
L 346.610563 224.64 
z
" style="fill:#1f77b4;opacity:0.3;"/>
   </g>
   <g id="patch_102">
    <path clip-path="url(#p33e265bd89)" d="M 45.321307 224.64 
L 48.395687 224.64 
L 48.395687 221.222941 
L 45.321307 221.222941 
z
" style="fill:#ff7f0e;opacity:0.3;"/>
   </g>
   <g id="patch_103">
    <path clip-path="url(#p33e265bd89)" d="M 48.395687 224.64 
L 51.470067 224.64 
L 51.470067 222.931471 
L 48.395687 222.931471 
z
" style="fill:#ff7f0e;opacity:0.3;"/>
   </g>
   <g id="patch_104">
    <path clip-path="url(#p33e265bd89)" d="M 51.470067 224.64 
L 54.544447 224.64 
L 54.544447 222.931471 
L 51.470067 222.931471 
z
" style="fill:#ff7f0e;opacity:0.3;"/>
   </g>
   <g id="patch_105">
    <path clip-path="url(#p33e265bd89)" d="M 54.544447 224.64 
L 57.618827 224.64 
L 57.618827 224.64 
L 54.544447 224.64 
z
" style="fill:#ff7f0e;opacity:0.3;"/>
   </g>
   <g id="patch_106">
    <path clip-path="url(#p33e265bd89)" d="M 57.618827 224.64 
L 60.693208 224.64 
L 60.693208 222.931471 
L 57.618827 222.931471 
z
" style="fill:#ff7f0e;opacity:0.3;"/>
   </g>
   <g id="patch_107">
    <path clip-path="url(#p33e265bd89)" d="M 60.693208 224.64 
L 63.767588 224.64 
L 63.767588 216.097353 
L 60.693208 216.097353 
z
" style="fill:#ff7f0e;opacity:0.3;"/>
   </g>
   <g id="patch_108">
    <path clip-path="url(#p33e265bd89)" d="M 63.767588 224.64 
L 66.841968 224.64 
L 66.841968 222.931471 
L 63.767588 222.931471 
z
" style="fill:#ff7f0e;opacity:0.3;"/>
   </g>
   <g id="patch_109">
    <path clip-path="url(#p33e265bd89)" d="M 66.841968 224.64 
L 69.916348 224.64 
L 69.916348 217.805883 
L 66.841968 217.805883 
z
" style="fill:#ff7f0e;opacity:0.3;"/>
   </g>
   <g id="patch_110">
    <path clip-path="url(#p33e265bd89)" d="M 69.916348 224.64 
L 72.990728 224.64 
L 72.990728 221.222941 
L 69.916348 221.222941 
z
" style="fill:#ff7f0e;opacity:0.3;"/>
   </g>
   <g id="patch_111">
    <path clip-path="url(#p33e265bd89)" d="M 72.990728 224.64 
L 76.065108 224.64 
L 76.065108 216.097353 
L 72.990728 216.097353 
z
" style="fill:#ff7f0e;opacity:0.3;"/>
   </g>
   <g id="patch_112">
    <path clip-path="url(#p33e265bd89)" d="M 76.065108 224.64 
L 79.139489 224.64 
L 79.139489 207.554707 
L 76.065108 207.554707 
z
" style="fill:#ff7f0e;opacity:0.3;"/>
   </g>
   <g id="patch_113">
    <path clip-path="url(#p33e265bd89)" d="M 79.139489 224.64 
L 82.213869 224.64 
L 82.213869 209.263236 
L 79.139489 209.263236 
z
" style="fill:#ff7f0e;opacity:0.3;"/>
   </g>
   <g id="patch_114">
    <path clip-path="url(#p33e265bd89)" d="M 82.213869 224.64 
L 85.288249 224.64 
L 85.288249 207.554707 
L 82.213869 207.554707 
z
" style="fill:#ff7f0e;opacity:0.3;"/>
   </g>
   <g id="patch_115">
    <path clip-path="url(#p33e265bd89)" d="M 85.288249 224.64 
L 88.362629 224.64 
L 88.362629 210.971765 
L 85.288249 210.971765 
z
" style="fill:#ff7f0e;opacity:0.3;"/>
   </g>
   <g id="patch_116">
    <path clip-path="url(#p33e265bd89)" d="M 88.362629 224.64 
L 91.437009 224.64 
L 91.437009 207.554707 
L 88.362629 207.554707 
z
" style="fill:#ff7f0e;opacity:0.3;"/>
   </g>
   <g id="patch_117">
    <path clip-path="url(#p33e265bd89)" d="M 91.437009 224.64 
L 94.511389 224.64 
L 94.511389 212.680295 
L 91.437009 212.680295 
z
" style="fill:#ff7f0e;opacity:0.3;"/>
   </g>
   <g id="patch_118">
    <path clip-path="url(#p33e265bd89)" d="M 94.511389 224.64 
L 97.58577 224.64 
L 97.58577 202.429119 
L 94.511389 202.429119 
z
" style="fill:#ff7f0e;opacity:0.3;"/>
   </g>
   <g id="patch_119">
    <path clip-path="url(#p33e265bd89)" d="M 97.58577 224.64 
L 100.66015 224.64 
L 100.66015 205.846177 
L 97.58577 205.846177 
z
" style="fill:#ff7f0e;opacity:0.3;"/>
   </g>
   <g id="patch_120">
    <path clip-path="url(#p33e265bd89)" d="M 100.66015 224.64 
L 103.73453 224.64 
L 103.73453 199.01206 
L 100.66015 199.01206 
z
" style="fill:#ff7f0e;opacity:0.3;"/>
   </g>
   <g id="patch_121">
    <path clip-path="url(#p33e265bd89)" d="M 103.73453 224.64 
L 106.80891 224.64 
L 106.80891 210.971765 
L 103.73453 210.971765 
z
" style="fill:#ff7f0e;opacity:0.3;"/>
   </g>
   <g id="patch_122">
    <path clip-path="url(#p33e265bd89)" d="M 106.80891 224.64 
L 109.88329 224.64 
L 109.88329 204.137648 
L 106.80891 204.137648 
z
" style="fill:#ff7f0e;opacity:0.3;"/>
   </g>
   <g id="patch_123">
    <path clip-path="url(#p33e265bd89)" d="M 109.88329 224.64 
L 112.95767 224.64 
L 112.95767 190.469413 
L 109.88329 190.469413 
z
" style="fill:#ff7f0e;opacity:0.3;"/>
   </g>
   <g id="patch_124">
    <path clip-path="url(#p33e265bd89)" d="M 112.95767 224.64 
L 116.032051 224.64 
L 116.032051 205.846177 
L 112.95767 205.846177 
z
" style="fill:#ff7f0e;opacity:0.3;"/>
   </g>
   <g id="patch_125">
    <path clip-path="url(#p33e265bd89)" d="M 116.032051 224.64 
L 119.106431 224.64 
L 119.106431 185.343825 
L 116.032051 185.343825 
z
" style="fill:#ff7f0e;opacity:0.3;"/>
   </g>
   <g id="patch_126">
    <path clip-path="url(#p33e265bd89)" d="M 119.106431 224.64 
L 122.180811 224.64 
L 122.180811 195.595001 
L 119.106431 195.595001 
z
" style="fill:#ff7f0e;opacity:0.3;"/>
   </g>
   <g id="patch_127">
    <path clip-path="url(#p33e265bd89)" d="M 122.180811 224.64 
L 125.255191 224.64 
L 125.255191 188.760884 
L 122.180811 188.760884 
z
" style="fill:#ff7f0e;opacity:0.3;"/>
   </g>
   <g id="patch_128">
    <path clip-path="url(#p33e265bd89)" d="M 125.255191 224.64 
L 128.329571 224.64 
L 128.329571 176.801179 
L 125.255191 176.801179 
z
" style="fill:#ff7f0e;opacity:0.3;"/>
   </g>
   <g id="patch_129">
    <path clip-path="url(#p33e265bd89)" d="M 128.329571 224.64 
L 131.403951 224.64 
L 131.403951 181.926767 
L 128.329571 181.926767 
z
" style="fill:#ff7f0e;opacity:0.3;"/>
   </g>
   <g id="patch_130">
    <path clip-path="url(#p33e265bd89)" d="M 131.403951 224.64 
L 134.478332 224.64 
L 134.478332 185.343825 
L 131.403951 185.343825 
z
" style="fill:#ff7f0e;opacity:0.3;"/>
   </g>
   <g id="patch_131">
    <path clip-path="url(#p33e265bd89)" d="M 134.478332 224.64 
L 137.552712 224.64 
L 137.552712 178.509708 
L 134.478332 178.509708 
z
" style="fill:#ff7f0e;opacity:0.3;"/>
   </g>
   <g id="patch_132">
    <path clip-path="url(#p33e265bd89)" d="M 137.552712 224.64 
L 140.627092 224.64 
L 140.627092 185.343825 
L 137.552712 185.343825 
z
" style="fill:#ff7f0e;opacity:0.3;"/>
   </g>
   <g id="patch_133">
    <path clip-path="url(#p33e265bd89)" d="M 140.627092 224.64 
L 143.701472 224.64 
L 143.701472 181.926767 
L 140.627092 181.926767 
z
" style="fill:#ff7f0e;opacity:0.3;"/>
   </g>
   <g id="patch_134">
    <path clip-path="url(#p33e265bd89)" d="M 143.701472 224.64 
L 146.775852 224.64 
L 146.775852 163.132944 
L 143.701472 163.132944 
z
" style="fill:#ff7f0e;opacity:0.3;"/>
   </g>
   <g id="patch_135">
    <path clip-path="url(#p33e265bd89)" d="M 146.775852 224.64 
L 149.850232 224.64 
L 149.850232 158.007356 
L 146.775852 158.007356 
z
" style="fill:#ff7f0e;opacity:0.3;"/>
   </g>
   <g id="patch_136">
    <path clip-path="url(#p33e265bd89)" d="M 149.850232 224.64 
L 152.924613 224.64 
L 152.924613 146.047651 
L 149.850232 146.047651 
z
" style="fill:#ff7f0e;opacity:0.3;"/>
   </g>
   <g id="patch_137">
    <path clip-path="url(#p33e265bd89)" d="M 152.924613 224.64 
L 155.998993 224.64 
L 155.998993 151.173239 
L 152.924613 151.173239 
z
" style="fill:#ff7f0e;opacity:0.3;"/>
   </g>
   <g id="patch_138">
    <path clip-path="url(#p33e265bd89)" d="M 155.998993 224.64 
L 159.073373 224.64 
L 159.073373 146.047651 
L 155.998993 146.047651 
z
" style="fill:#ff7f0e;opacity:0.3;"/>
   </g>
   <g id="patch_139">
    <path clip-path="url(#p33e265bd89)" d="M 159.073373 224.64 
L 162.147753 224.64 
L 162.147753 156.298827 
L 159.073373 156.298827 
z
" style="fill:#ff7f0e;opacity:0.3;"/>
   </g>
   <g id="patch_140">
    <path clip-path="url(#p33e265bd89)" d="M 162.147753 224.64 
L 165.222133 224.64 
L 165.222133 147.75618 
L 162.147753 147.75618 
z
" style="fill:#ff7f0e;opacity:0.3;"/>
   </g>
   <g id="patch_141">
    <path clip-path="url(#p33e265bd89)" d="M 165.222133 224.64 
L 168.296513 224.64 
L 168.296513 154.590298 
L 165.222133 154.590298 
z
" style="fill:#ff7f0e;opacity:0.3;"/>
   </g>
   <g id="patch_142">
    <path clip-path="url(#p33e265bd89)" d="M 168.296513 224.64 
L 171.370894 224.64 
L 171.370894 146.047651 
L 168.296513 146.047651 
z
" style="fill:#ff7f0e;opacity:0.3;"/>
   </g>
   <g id="patch_143">
    <path clip-path="url(#p33e265bd89)" d="M 171.370894 224.64 
L 174.445274 224.64 
L 174.445274 139.213534 
L 171.370894 139.213534 
z
" style="fill:#ff7f0e;opacity:0.3;"/>
   </g>
   <g id="patch_144">
    <path clip-path="url(#p33e265bd89)" d="M 174.445274 224.64 
L 177.519654 224.64 
L 177.519654 147.75618 
L 174.445274 147.75618 
z
" style="fill:#ff7f0e;opacity:0.3;"/>
   </g>
   <g id="patch_145">
    <path clip-path="url(#p33e265bd89)" d="M 177.519654 224.64 
L 180.594034 224.64 
L 180.594034 161.424415 
L 177.519654 161.424415 
z
" style="fill:#ff7f0e;opacity:0.3;"/>
   </g>
   <g id="patch_146">
    <path clip-path="url(#p33e265bd89)" d="M 180.594034 224.64 
L 183.668414 224.64 
L 183.668414 135.796475 
L 180.594034 135.796475 
z
" style="fill:#ff7f0e;opacity:0.3;"/>
   </g>
   <g id="patch_147">
    <path clip-path="url(#p33e265bd89)" d="M 183.668414 224.64 
L 186.742794 224.64 
L 186.742794 151.173239 
L 183.668414 151.173239 
z
" style="fill:#ff7f0e;opacity:0.3;"/>
   </g>
   <g id="patch_148">
    <path clip-path="url(#p33e265bd89)" d="M 186.742794 224.64 
L 189.817175 224.64 
L 189.817175 156.298827 
L 186.742794 156.298827 
z
" style="fill:#ff7f0e;opacity:0.3;"/>
   </g>
   <g id="patch_149">
    <path clip-path="url(#p33e265bd89)" d="M 189.817175 224.64 
L 192.891555 224.64 
L 192.891555 147.75618 
L 189.817175 147.75618 
z
" style="fill:#ff7f0e;opacity:0.3;"/>
   </g>
   <g id="patch_150">
    <path clip-path="url(#p33e265bd89)" d="M 192.891555 224.64 
L 195.965935 224.64 
L 195.965935 120.419711 
L 192.891555 120.419711 
z
" style="fill:#ff7f0e;opacity:0.3;"/>
   </g>
   <g id="patch_151">
    <path clip-path="url(#p33e265bd89)" d="M 195.965935 224.64 
L 199.040315 224.64 
L 199.040315 139.213534 
L 195.965935 139.213534 
z
" style="fill:#ff7f0e;opacity:0.3;"/>
   </g>
   <g id="patch_152">
    <path clip-path="url(#p33e265bd89)" d="M 199.040315 224.64 
L 202.114695 224.64 
L 202.114695 139.213534 
L 199.040315 139.213534 
z
" style="fill:#ff7f0e;opacity:0.3;"/>
   </g>
   <g id="patch_153">
    <path clip-path="url(#p33e265bd89)" d="M 202.114695 224.64 
L 205.189075 224.64 
L 205.189075 149.46471 
L 202.114695 149.46471 
z
" style="fill:#ff7f0e;opacity:0.3;"/>
   </g>
   <g id="patch_154">
    <path clip-path="url(#p33e265bd89)" d="M 205.189075 224.64 
L 208.263456 224.64 
L 208.263456 151.173239 
L 205.189075 151.173239 
z
" style="fill:#ff7f0e;opacity:0.3;"/>
   </g>
   <g id="patch_155">
    <path clip-path="url(#p33e265bd89)" d="M 208.263456 224.64 
L 211.337836 224.64 
L 211.337836 130.670887 
L 208.263456 130.670887 
z
" style="fill:#ff7f0e;opacity:0.3;"/>
   </g>
   <g id="patch_156">
    <path clip-path="url(#p33e265bd89)" d="M 211.337836 224.64 
L 214.412216 224.64 
L 214.412216 156.298827 
L 211.337836 156.298827 
z
" style="fill:#ff7f0e;opacity:0.3;"/>
   </g>
   <g id="patch_157">
    <path clip-path="url(#p33e265bd89)" d="M 214.412216 224.64 
L 217.486596 224.64 
L 217.486596 146.047651 
L 214.412216 146.047651 
z
" style="fill:#ff7f0e;opacity:0.3;"/>
   </g>
   <g id="patch_158">
    <path clip-path="url(#p33e265bd89)" d="M 217.486596 224.64 
L 220.560976 224.64 
L 220.560976 171.675591 
L 217.486596 171.675591 
z
" style="fill:#ff7f0e;opacity:0.3;"/>
   </g>
   <g id="patch_159">
    <path clip-path="url(#p33e265bd89)" d="M 220.560976 224.64 
L 223.635356 224.64 
L 223.635356 169.967061 
L 220.560976 169.967061 
z
" style="fill:#ff7f0e;opacity:0.3;"/>
   </g>
   <g id="patch_160">
    <path clip-path="url(#p33e265bd89)" d="M 223.635356 224.64 
L 226.709737 224.64 
L 226.709737 173.38412 
L 223.635356 173.38412 
z
" style="fill:#ff7f0e;opacity:0.3;"/>
   </g>
   <g id="patch_161">
    <path clip-path="url(#p33e265bd89)" d="M 226.709737 224.64 
L 229.784117 224.64 
L 229.784117 178.509708 
L 226.709737 178.509708 
z
" style="fill:#ff7f0e;opacity:0.3;"/>
   </g>
   <g id="patch_162">
    <path clip-path="url(#p33e265bd89)" d="M 229.784117 224.64 
L 232.858497 224.64 
L 232.858497 183.635296 
L 229.784117 183.635296 
z
" style="fill:#ff7f0e;opacity:0.3;"/>
   </g>
   <g id="patch_163">
    <path clip-path="url(#p33e265bd89)" d="M 232.858497 224.64 
L 235.932877 224.64 
L 235.932877 171.675591 
L 232.858497 171.675591 
z
" style="fill:#ff7f0e;opacity:0.3;"/>
   </g>
   <g id="patch_164">
    <path clip-path="url(#p33e265bd89)" d="M 235.932877 224.64 
L 239.007257 224.64 
L 239.007257 169.967061 
L 235.932877 169.967061 
z
" style="fill:#ff7f0e;opacity:0.3;"/>
   </g>
   <g id="patch_165">
    <path clip-path="url(#p33e265bd89)" d="M 239.007257 224.64 
L 242.081637 224.64 
L 242.081637 169.967061 
L 239.007257 169.967061 
z
" style="fill:#ff7f0e;opacity:0.3;"/>
   </g>
   <g id="patch_166">
    <path clip-path="url(#p33e265bd89)" d="M 242.081637 224.64 
L 245.156018 224.64 
L 245.156018 173.38412 
L 242.081637 173.38412 
z
" style="fill:#ff7f0e;opacity:0.3;"/>
   </g>
   <g id="patch_167">
    <path clip-path="url(#p33e265bd89)" d="M 245.156018 224.64 
L 248.230398 224.64 
L 248.230398 173.38412 
L 245.156018 173.38412 
z
" style="fill:#ff7f0e;opacity:0.3;"/>
   </g>
   <g id="patch_168">
    <path clip-path="url(#p33e265bd89)" d="M 248.230398 224.64 
L 251.304778 224.64 
L 251.304778 178.509708 
L 248.230398 178.509708 
z
" style="fill:#ff7f0e;opacity:0.3;"/>
   </g>
   <g id="patch_169">
    <path clip-path="url(#p33e265bd89)" d="M 251.304778 224.64 
L 254.379158 224.64 
L 254.379158 195.595001 
L 251.304778 195.595001 
z
" style="fill:#ff7f0e;opacity:0.3;"/>
   </g>
   <g id="patch_170">
    <path clip-path="url(#p33e265bd89)" d="M 254.379158 224.64 
L 257.453538 224.64 
L 257.453538 185.343825 
L 254.379158 185.343825 
z
" style="fill:#ff7f0e;opacity:0.3;"/>
   </g>
   <g id="patch_171">
    <path clip-path="url(#p33e265bd89)" d="M 257.453538 224.64 
L 260.527918 224.64 
L 260.527918 192.177943 
L 257.453538 192.177943 
z
" style="fill:#ff7f0e;opacity:0.3;"/>
   </g>
   <g id="patch_172">
    <path clip-path="url(#p33e265bd89)" d="M 260.527918 224.64 
L 263.602299 224.64 
L 263.602299 199.01206 
L 260.527918 199.01206 
z
" style="fill:#ff7f0e;opacity:0.3;"/>
   </g>
   <g id="patch_173">
    <path clip-path="url(#p33e265bd89)" d="M 263.602299 224.64 
L 266.676679 224.64 
L 266.676679 204.137648 
L 263.602299 204.137648 
z
" style="fill:#ff7f0e;opacity:0.3;"/>
   </g>
   <g id="patch_174">
    <path clip-path="url(#p33e265bd89)" d="M 266.676679 224.64 
L 269.751059 224.64 
L 269.751059 205.846177 
L 266.676679 205.846177 
z
" style="fill:#ff7f0e;opacity:0.3;"/>
   </g>
   <g id="patch_175">
    <path clip-path="url(#p33e265bd89)" d="M 269.751059 224.64 
L 272.825439 224.64 
L 272.825439 210.971765 
L 269.751059 210.971765 
z
" style="fill:#ff7f0e;opacity:0.3;"/>
   </g>
   <g id="patch_176">
    <path clip-path="url(#p33e265bd89)" d="M 272.825439 224.64 
L 275.899819 224.64 
L 275.899819 209.263236 
L 272.825439 209.263236 
z
" style="fill:#ff7f0e;opacity:0.3;"/>
   </g>
   <g id="patch_177">
    <path clip-path="url(#p33e265bd89)" d="M 275.899819 224.64 
L 278.974199 224.64 
L 278.974199 207.554707 
L 275.899819 207.554707 
z
" style="fill:#ff7f0e;opacity:0.3;"/>
   </g>
   <g id="patch_178">
    <path clip-path="url(#p33e265bd89)" d="M 278.974199 224.64 
L 282.04858 224.64 
L 282.04858 207.554707 
L 278.974199 207.554707 
z
" style="fill:#ff7f0e;opacity:0.3;"/>
   </g>
   <g id="patch_179">
    <path clip-path="url(#p33e265bd89)" d="M 282.04858 224.64 
L 285.12296 224.64 
L 285.12296 205.846177 
L 282.04858 205.846177 
z
" style="fill:#ff7f0e;opacity:0.3;"/>
   </g>
   <g id="patch_180">
    <path clip-path="url(#p33e265bd89)" d="M 285.12296 224.64 
L 288.19734 224.64 
L 288.19734 207.554707 
L 285.12296 207.554707 
z
" style="fill:#ff7f0e;opacity:0.3;"/>
   </g>
   <g id="patch_181">
    <path clip-path="url(#p33e265bd89)" d="M 288.19734 224.64 
L 291.27172 224.64 
L 291.27172 219.514412 
L 288.19734 219.514412 
z
" style="fill:#ff7f0e;opacity:0.3;"/>
   </g>
   <g id="patch_182">
    <path clip-path="url(#p33e265bd89)" d="M 291.27172 224.64 
L 294.3461 224.64 
L 294.3461 216.097353 
L 291.27172 216.097353 
z
" style="fill:#ff7f0e;opacity:0.3;"/>
   </g>
   <g id="patch_183">
    <path clip-path="url(#p33e265bd89)" d="M 294.3461 224.64 
L 297.42048 224.64 
L 297.42048 216.097353 
L 294.3461 216.097353 
z
" style="fill:#ff7f0e;opacity:0.3;"/>
   </g>
   <g id="patch_184">
    <path clip-path="url(#p33e265bd89)" d="M 297.42048 224.64 
L 300.494861 224.64 
L 300.494861 214.388824 
L 297.42048 214.388824 
z
" style="fill:#ff7f0e;opacity:0.3;"/>
   </g>
   <g id="patch_185">
    <path clip-path="url(#p33e265bd89)" d="M 300.494861 224.64 
L 303.569241 224.64 
L 303.569241 221.222941 
L 300.494861 221.222941 
z
" style="fill:#ff7f0e;opacity:0.3;"/>
   </g>
   <g id="patch_186">
    <path clip-path="url(#p33e265bd89)" d="M 303.569241 224.64 
L 306.643621 224.64 
L 306.643621 219.514412 
L 303.569241 219.514412 
z
" style="fill:#ff7f0e;opacity:0.3;"/>
   </g>
   <g id="patch_187">
    <path clip-path="url(#p33e265bd89)" d="M 306.643621 224.64 
L 309.718001 224.64 
L 309.718001 217.805883 
L 306.643621 217.805883 
z
" style="fill:#ff7f0e;opacity:0.3;"/>
   </g>
   <g id="patch_188">
    <path clip-path="url(#p33e265bd89)" d="M 309.718001 224.64 
L 312.792381 224.64 
L 312.792381 221.222941 
L 309.718001 221.222941 
z
" style="fill:#ff7f0e;opacity:0.3;"/>
   </g>
   <g id="patch_189">
    <path clip-path="url(#p33e265bd89)" d="M 312.792381 224.64 
L 315.866761 224.64 
L 315.866761 216.097353 
L 312.792381 216.097353 
z
" style="fill:#ff7f0e;opacity:0.3;"/>
   </g>
   <g id="patch_190">
    <path clip-path="url(#p33e265bd89)" d="M 315.866761 224.64 
L 318.941142 224.64 
L 318.941142 224.64 
L 315.866761 224.64 
z
" style="fill:#ff7f0e;opacity:0.3;"/>
   </g>
   <g id="patch_191">
    <path clip-path="url(#p33e265bd89)" d="M 318.941142 224.64 
L 322.015522 224.64 
L 322.015522 222.931471 
L 318.941142 222.931471 
z
" style="fill:#ff7f0e;opacity:0.3;"/>
   </g>
   <g id="patch_192">
    <path clip-path="url(#p33e265bd89)" d="M 322.015522 224.64 
L 325.089902 224.64 
L 325.089902 217.805883 
L 322.015522 217.805883 
z
" style="fill:#ff7f0e;opacity:0.3;"/>
   </g>
   <g id="patch_193">
    <path clip-path="url(#p33e265bd89)" d="M 325.089902 224.64 
L 328.164282 224.64 
L 328.164282 224.64 
L 325.089902 224.64 
z
" style="fill:#ff7f0e;opacity:0.3;"/>
   </g>
   <g id="patch_194">
    <path clip-path="url(#p33e265bd89)" d="M 328.164282 224.64 
L 331.238662 224.64 
L 331.238662 221.222941 
L 328.164282 221.222941 
z
" style="fill:#ff7f0e;opacity:0.3;"/>
   </g>
   <g id="patch_195">
    <path clip-path="url(#p33e265bd89)" d="M 331.238662 224.64 
L 334.313042 224.64 
L 334.313042 222.931471 
L 331.238662 222.931471 
z
" style="fill:#ff7f0e;opacity:0.3;"/>
   </g>
   <g id="patch_196">
    <path clip-path="url(#p33e265bd89)" d="M 334.313042 224.64 
L 337.387423 224.64 
L 337.387423 224.64 
L 334.313042 224.64 
z
" style="fill:#ff7f0e;opacity:0.3;"/>
   </g>
   <g id="patch_197">
    <path clip-path="url(#p33e265bd89)" d="M 337.387423 224.64 
L 340.461803 224.64 
L 340.461803 224.64 
L 337.387423 224.64 
z
" style="fill:#ff7f0e;opacity:0.3;"/>
   </g>
   <g id="patch_198">
    <path clip-path="url(#p33e265bd89)" d="M 340.461803 224.64 
L 343.536183 224.64 
L 343.536183 222.931471 
L 340.461803 222.931471 
z
" style="fill:#ff7f0e;opacity:0.3;"/>
   </g>
   <g id="patch_199">
    <path clip-path="url(#p33e265bd89)" d="M 343.536183 224.64 
L 346.610563 224.64 
L 346.610563 222.931471 
L 343.536183 222.931471 
z
" style="fill:#ff7f0e;opacity:0.3;"/>
   </g>
   <g id="patch_200">
    <path clip-path="url(#p33e265bd89)" d="M 346.610563 224.64 
L 349.684943 224.64 
L 349.684943 224.64 
L 346.610563 224.64 
z
" style="fill:#ff7f0e;opacity:0.3;"/>
   </g>
   <g id="matplotlib.axis_1">
    <g id="xtick_1">
     <g id="line2d_1">
      <defs>
       <path d="M 0 0 
L 0 3.5 
" id="me0a0f9b2e3" style="stroke:#000000;stroke-width:0.8;"/>
      </defs>
      <g>
       <use style="stroke:#000000;stroke-width:0.8;" x="68.733894" xlink:href="#me0a0f9b2e3" y="224.64"/>
      </g>
     </g>
     <g id="text_1">
      <!-- −2 -->
      <g transform="translate(61.3628 239.238437)scale(0.1 -0.1)">
       <defs>
        <path d="M 10.59375 35.5 
L 73.1875 35.5 
L 73.1875 27.203125 
L 10.59375 27.203125 
z
" id="DejaVuSans-8722"/>
        <path d="M 19.1875 8.296875 
L 53.609375 8.296875 
L 53.609375 0 
L 7.328125 0 
L 7.328125 8.296875 
Q 12.9375 14.109375 22.625 23.890625 
Q 32.328125 33.6875 34.8125 36.53125 
Q 39.546875 41.84375 41.421875 45.53125 
Q 43.3125 49.21875 43.3125 52.78125 
Q 43.3125 58.59375 39.234375 62.25 
Q 35.15625 65.921875 28.609375 65.921875 
Q 23.96875 65.921875 18.8125 64.3125 
Q 13.671875 62.703125 7.8125 59.421875 
L 7.8125 69.390625 
Q 13.765625 71.78125 18.9375 73 
Q 24.125 74.21875 28.421875 74.21875 
Q 39.75 74.21875 46.484375 68.546875 
Q 53.21875 62.890625 53.21875 53.421875 
Q 53.21875 48.921875 51.53125 44.890625 
Q 49.859375 40.875 45.40625 35.40625 
Q 44.1875 33.984375 37.640625 27.21875 
Q 31.109375 20.453125 19.1875 8.296875 
z
" id="DejaVuSans-50"/>
       </defs>
       <use xlink:href="#DejaVuSans-8722"/>
       <use x="83.789062" xlink:href="#DejaVuSans-50"/>
      </g>
     </g>
    </g>
    <g id="xtick_2">
     <g id="line2d_2">
      <g>
       <use style="stroke:#000000;stroke-width:0.8;" x="115.559069" xlink:href="#me0a0f9b2e3" y="224.64"/>
      </g>
     </g>
     <g id="text_2">
      <!-- 0 -->
      <g transform="translate(112.377819 239.238437)scale(0.1 -0.1)">
       <defs>
        <path d="M 31.78125 66.40625 
Q 24.171875 66.40625 20.328125 58.90625 
Q 16.5 51.421875 16.5 36.375 
Q 16.5 21.390625 20.328125 13.890625 
Q 24.171875 6.390625 31.78125 6.390625 
Q 39.453125 6.390625 43.28125 13.890625 
Q 47.125 21.390625 47.125 36.375 
Q 47.125 51.421875 43.28125 58.90625 
Q 39.453125 66.40625 31.78125 66.40625 
z
M 31.78125 74.21875 
Q 44.046875 74.21875 50.515625 64.515625 
Q 56.984375 54.828125 56.984375 36.375 
Q 56.984375 17.96875 50.515625 8.265625 
Q 44.046875 -1.421875 31.78125 -1.421875 
Q 19.53125 -1.421875 13.0625 8.265625 
Q 6.59375 17.96875 6.59375 36.375 
Q 6.59375 54.828125 13.0625 64.515625 
Q 19.53125 74.21875 31.78125 74.21875 
z
" id="DejaVuSans-48"/>
       </defs>
       <use xlink:href="#DejaVuSans-48"/>
      </g>
     </g>
    </g>
    <g id="xtick_3">
     <g id="line2d_3">
      <g>
       <use style="stroke:#000000;stroke-width:0.8;" x="162.384244" xlink:href="#me0a0f9b2e3" y="224.64"/>
      </g>
     </g>
     <g id="text_3">
      <!-- 2 -->
      <g transform="translate(159.202994 239.238437)scale(0.1 -0.1)">
       <use xlink:href="#DejaVuSans-50"/>
      </g>
     </g>
    </g>
    <g id="xtick_4">
     <g id="line2d_4">
      <g>
       <use style="stroke:#000000;stroke-width:0.8;" x="209.209419" xlink:href="#me0a0f9b2e3" y="224.64"/>
      </g>
     </g>
     <g id="text_4">
      <!-- 4 -->
      <g transform="translate(206.028169 239.238437)scale(0.1 -0.1)">
       <defs>
        <path d="M 37.796875 64.3125 
L 12.890625 25.390625 
L 37.796875 25.390625 
z
M 35.203125 72.90625 
L 47.609375 72.90625 
L 47.609375 25.390625 
L 58.015625 25.390625 
L 58.015625 17.1875 
L 47.609375 17.1875 
L 47.609375 0 
L 37.796875 0 
L 37.796875 17.1875 
L 4.890625 17.1875 
L 4.890625 26.703125 
z
" id="DejaVuSans-52"/>
       </defs>
       <use xlink:href="#DejaVuSans-52"/>
      </g>
     </g>
    </g>
    <g id="xtick_5">
     <g id="line2d_5">
      <g>
       <use style="stroke:#000000;stroke-width:0.8;" x="256.034594" xlink:href="#me0a0f9b2e3" y="224.64"/>
      </g>
     </g>
     <g id="text_5">
      <!-- 6 -->
      <g transform="translate(252.853344 239.238437)scale(0.1 -0.1)">
       <defs>
        <path d="M 33.015625 40.375 
Q 26.375 40.375 22.484375 35.828125 
Q 18.609375 31.296875 18.609375 23.390625 
Q 18.609375 15.53125 22.484375 10.953125 
Q 26.375 6.390625 33.015625 6.390625 
Q 39.65625 6.390625 43.53125 10.953125 
Q 47.40625 15.53125 47.40625 23.390625 
Q 47.40625 31.296875 43.53125 35.828125 
Q 39.65625 40.375 33.015625 40.375 
z
M 52.59375 71.296875 
L 52.59375 62.3125 
Q 48.875 64.0625 45.09375 64.984375 
Q 41.3125 65.921875 37.59375 65.921875 
Q 27.828125 65.921875 22.671875 59.328125 
Q 17.53125 52.734375 16.796875 39.40625 
Q 19.671875 43.65625 24.015625 45.921875 
Q 28.375 48.1875 33.59375 48.1875 
Q 44.578125 48.1875 50.953125 41.515625 
Q 57.328125 34.859375 57.328125 23.390625 
Q 57.328125 12.15625 50.6875 5.359375 
Q 44.046875 -1.421875 33.015625 -1.421875 
Q 20.359375 -1.421875 13.671875 8.265625 
Q 6.984375 17.96875 6.984375 36.375 
Q 6.984375 53.65625 15.1875 63.9375 
Q 23.390625 74.21875 37.203125 74.21875 
Q 40.921875 74.21875 44.703125 73.484375 
Q 48.484375 72.75 52.59375 71.296875 
z
" id="DejaVuSans-54"/>
       </defs>
       <use xlink:href="#DejaVuSans-54"/>
      </g>
     </g>
    </g>
    <g id="xtick_6">
     <g id="line2d_6">
      <g>
       <use style="stroke:#000000;stroke-width:0.8;" x="302.859768" xlink:href="#me0a0f9b2e3" y="224.64"/>
      </g>
     </g>
     <g id="text_6">
      <!-- 8 -->
      <g transform="translate(299.678518 239.238437)scale(0.1 -0.1)">
       <defs>
        <path d="M 31.78125 34.625 
Q 24.75 34.625 20.71875 30.859375 
Q 16.703125 27.09375 16.703125 20.515625 
Q 16.703125 13.921875 20.71875 10.15625 
Q 24.75 6.390625 31.78125 6.390625 
Q 38.8125 6.390625 42.859375 10.171875 
Q 46.921875 13.96875 46.921875 20.515625 
Q 46.921875 27.09375 42.890625 30.859375 
Q 38.875 34.625 31.78125 34.625 
z
M 21.921875 38.8125 
Q 15.578125 40.375 12.03125 44.71875 
Q 8.5 49.078125 8.5 55.328125 
Q 8.5 64.0625 14.71875 69.140625 
Q 20.953125 74.21875 31.78125 74.21875 
Q 42.671875 74.21875 48.875 69.140625 
Q 55.078125 64.0625 55.078125 55.328125 
Q 55.078125 49.078125 51.53125 44.71875 
Q 48 40.375 41.703125 38.8125 
Q 48.828125 37.15625 52.796875 32.3125 
Q 56.78125 27.484375 56.78125 20.515625 
Q 56.78125 9.90625 50.3125 4.234375 
Q 43.84375 -1.421875 31.78125 -1.421875 
Q 19.734375 -1.421875 13.25 4.234375 
Q 6.78125 9.90625 6.78125 20.515625 
Q 6.78125 27.484375 10.78125 32.3125 
Q 14.796875 37.15625 21.921875 38.8125 
z
M 18.3125 54.390625 
Q 18.3125 48.734375 21.84375 45.5625 
Q 25.390625 42.390625 31.78125 42.390625 
Q 38.140625 42.390625 41.71875 45.5625 
Q 45.3125 48.734375 45.3125 54.390625 
Q 45.3125 60.0625 41.71875 63.234375 
Q 38.140625 66.40625 31.78125 66.40625 
Q 25.390625 66.40625 21.84375 63.234375 
Q 18.3125 60.0625 18.3125 54.390625 
z
" id="DejaVuSans-56"/>
       </defs>
       <use xlink:href="#DejaVuSans-56"/>
      </g>
     </g>
    </g>
    <g id="xtick_7">
     <g id="line2d_7">
      <g>
       <use style="stroke:#000000;stroke-width:0.8;" x="349.684943" xlink:href="#me0a0f9b2e3" y="224.64"/>
      </g>
     </g>
     <g id="text_7">
      <!-- 10 -->
      <g transform="translate(343.322443 239.238437)scale(0.1 -0.1)">
       <defs>
        <path d="M 12.40625 8.296875 
L 28.515625 8.296875 
L 28.515625 63.921875 
L 10.984375 60.40625 
L 10.984375 69.390625 
L 28.421875 72.90625 
L 38.28125 72.90625 
L 38.28125 8.296875 
L 54.390625 8.296875 
L 54.390625 0 
L 12.40625 0 
z
" id="DejaVuSans-49"/>
       </defs>
       <use xlink:href="#DejaVuSans-49"/>
       <use x="63.623047" xlink:href="#DejaVuSans-48"/>
      </g>
     </g>
    </g>
   </g>
   <g id="matplotlib.axis_2">
    <g id="ytick_1">
     <g id="line2d_8">
      <defs>
       <path d="M 0 0 
L -3.5 0 
" id="m0dd5fadd4d" style="stroke:#000000;stroke-width:0.8;"/>
      </defs>
      <g>
       <use style="stroke:#000000;stroke-width:0.8;" x="30.103125" xlink:href="#m0dd5fadd4d" y="224.64"/>
      </g>
     </g>
     <g id="text_8">
      <!-- 0.0 -->
      <g transform="translate(7.2 228.439219)scale(0.1 -0.1)">
       <defs>
        <path d="M 10.6875 12.40625 
L 21 12.40625 
L 21 0 
L 10.6875 0 
z
" id="DejaVuSans-46"/>
       </defs>
       <use xlink:href="#DejaVuSans-48"/>
       <use x="63.623047" xlink:href="#DejaVuSans-46"/>
       <use x="95.410156" xlink:href="#DejaVuSans-48"/>
      </g>
     </g>
    </g>
    <g id="ytick_2">
     <g id="line2d_9">
      <g>
       <use style="stroke:#000000;stroke-width:0.8;" x="30.103125" xlink:href="#m0dd5fadd4d" y="180.061191"/>
      </g>
     </g>
     <g id="text_9">
      <!-- 0.1 -->
      <g transform="translate(7.2 183.86041)scale(0.1 -0.1)">
       <use xlink:href="#DejaVuSans-48"/>
       <use x="63.623047" xlink:href="#DejaVuSans-46"/>
       <use x="95.410156" xlink:href="#DejaVuSans-49"/>
      </g>
     </g>
    </g>
    <g id="ytick_3">
     <g id="line2d_10">
      <g>
       <use style="stroke:#000000;stroke-width:0.8;" x="30.103125" xlink:href="#m0dd5fadd4d" y="135.482382"/>
      </g>
     </g>
     <g id="text_10">
      <!-- 0.2 -->
      <g transform="translate(7.2 139.2816)scale(0.1 -0.1)">
       <use xlink:href="#DejaVuSans-48"/>
       <use x="63.623047" xlink:href="#DejaVuSans-46"/>
       <use x="95.410156" xlink:href="#DejaVuSans-50"/>
      </g>
     </g>
    </g>
    <g id="ytick_4">
     <g id="line2d_11">
      <g>
       <use style="stroke:#000000;stroke-width:0.8;" x="30.103125" xlink:href="#m0dd5fadd4d" y="90.903572"/>
      </g>
     </g>
     <g id="text_11">
      <!-- 0.3 -->
      <g transform="translate(7.2 94.702791)scale(0.1 -0.1)">
       <defs>
        <path d="M 40.578125 39.3125 
Q 47.65625 37.796875 51.625 33 
Q 55.609375 28.21875 55.609375 21.1875 
Q 55.609375 10.40625 48.1875 4.484375 
Q 40.765625 -1.421875 27.09375 -1.421875 
Q 22.515625 -1.421875 17.65625 -0.515625 
Q 12.796875 0.390625 7.625 2.203125 
L 7.625 11.71875 
Q 11.71875 9.328125 16.59375 8.109375 
Q 21.484375 6.890625 26.8125 6.890625 
Q 36.078125 6.890625 40.9375 10.546875 
Q 45.796875 14.203125 45.796875 21.1875 
Q 45.796875 27.640625 41.28125 31.265625 
Q 36.765625 34.90625 28.71875 34.90625 
L 20.21875 34.90625 
L 20.21875 43.015625 
L 29.109375 43.015625 
Q 36.375 43.015625 40.234375 45.921875 
Q 44.09375 48.828125 44.09375 54.296875 
Q 44.09375 59.90625 40.109375 62.90625 
Q 36.140625 65.921875 28.71875 65.921875 
Q 24.65625 65.921875 20.015625 65.03125 
Q 15.375 64.15625 9.8125 62.3125 
L 9.8125 71.09375 
Q 15.4375 72.65625 20.34375 73.4375 
Q 25.25 74.21875 29.59375 74.21875 
Q 40.828125 74.21875 47.359375 69.109375 
Q 53.90625 64.015625 53.90625 55.328125 
Q 53.90625 49.265625 50.4375 45.09375 
Q 46.96875 40.921875 40.578125 39.3125 
z
" id="DejaVuSans-51"/>
       </defs>
       <use xlink:href="#DejaVuSans-48"/>
       <use x="63.623047" xlink:href="#DejaVuSans-46"/>
       <use x="95.410156" xlink:href="#DejaVuSans-51"/>
      </g>
     </g>
    </g>
    <g id="ytick_5">
     <g id="line2d_12">
      <g>
       <use style="stroke:#000000;stroke-width:0.8;" x="30.103125" xlink:href="#m0dd5fadd4d" y="46.324763"/>
      </g>
     </g>
     <g id="text_12">
      <!-- 0.4 -->
      <g transform="translate(7.2 50.123982)scale(0.1 -0.1)">
       <use xlink:href="#DejaVuSans-48"/>
       <use x="63.623047" xlink:href="#DejaVuSans-46"/>
       <use x="95.410156" xlink:href="#DejaVuSans-52"/>
      </g>
     </g>
    </g>
   </g>
   <g id="line2d_13">
    <path clip-path="url(#p33e265bd89)" d="M 45.321307 224.639998 
L 48.395687 224.639996 
L 51.470067 224.639991 
L 54.544447 224.63998 
L 57.618827 224.639959 
L 60.693208 224.639915 
L 63.767588 224.639828 
L 66.841968 224.639659 
L 69.916348 224.639334 
L 72.990728 224.638722 
L 76.065108 224.637592 
L 79.139489 224.63554 
L 82.213869 224.631881 
L 85.288249 224.625477 
L 88.362629 224.614469 
L 91.437009 224.595893 
L 94.511389 224.565117 
L 97.58577 224.515062 
L 100.66015 224.43515 
L 103.73453 224.309927 
L 106.80891 224.117341 
L 109.88329 223.826682 
L 112.95767 223.396241 
L 116.032051 222.770844 
L 119.106431 221.879495 
L 122.180811 220.633502 
L 125.255191 218.925543 
L 128.329571 216.630256 
L 131.403951 213.606943 
L 134.478332 209.704949 
L 137.552712 204.772139 
L 140.627092 198.666582 
L 143.701472 191.271193 
L 146.775852 182.510544 
L 149.850232 172.368543 
L 152.924613 160.905152 
L 155.998993 148.269983 
L 159.073373 134.710453 
L 162.147753 120.572406 
L 165.222133 106.29165 
L 168.296513 92.375745 
L 171.370894 79.376548 
L 174.445274 67.855249 
L 177.519654 58.342828 
L 180.594034 51.299718 
L 183.668414 47.078944 
L 186.742794 45.896801 
L 189.817175 47.814488 
L 192.891555 52.732863 
L 195.965935 60.40093 
L 199.040315 70.437066 
L 202.114695 82.360483 
L 205.189075 95.629304 
L 208.263456 109.68109 
L 211.337836 123.971604 
L 214.412216 138.008219 
L 217.486596 151.375274 
L 220.560976 163.749968 
L 223.635356 174.908557 
L 226.709737 184.723771 
L 229.784117 193.155156 
L 232.858497 200.234531 
L 235.932877 206.048845 
L 239.007257 210.722566 
L 242.081637 214.401283 
L 245.156018 217.23772 
L 248.230398 219.380807 
L 251.304778 220.96797 
L 254.379158 222.120427 
L 257.453538 222.941047 
L 260.527918 223.514179 
L 263.602299 223.906854 
L 266.676679 224.170813 
L 269.751059 224.344924 
L 272.825439 224.457629 
L 275.899819 224.529232 
L 278.974199 224.573885 
L 282.04858 224.601218 
L 285.12296 224.617645 
L 288.19734 224.627336 
L 291.27172 224.63295 
L 294.3461 224.636143 
L 297.42048 224.637926 
L 300.494861 224.638904 
L 303.569241 224.639431 
L 306.643621 224.63971 
L 309.718001 224.639854 
L 312.792381 224.639928 
L 315.866761 224.639965 
L 318.941142 224.639983 
L 322.015522 224.639992 
L 325.089902 224.639996 
L 328.164282 224.639998 
L 331.238662 224.639999 
L 334.313042 224.64 
L 337.387423 224.64 
L 340.461803 224.64 
L 343.536183 224.64 
L 346.610563 224.64 
L 349.684943 224.64 
" style="fill:none;stroke:#000000;stroke-linecap:square;stroke-width:1.5;"/>
   </g>
   <g id="patch_201">
    <path d="M 30.103125 224.64 
L 30.103125 7.2 
" style="fill:none;stroke:#000000;stroke-linecap:square;stroke-linejoin:miter;stroke-width:0.8;"/>
   </g>
   <g id="patch_202">
    <path d="M 364.903125 224.64 
L 364.903125 7.2 
" style="fill:none;stroke:#000000;stroke-linecap:square;stroke-linejoin:miter;stroke-width:0.8;"/>
   </g>
   <g id="patch_203">
    <path d="M 30.103125 224.64 
L 364.903125 224.64 
" style="fill:none;stroke:#000000;stroke-linecap:square;stroke-linejoin:miter;stroke-width:0.8;"/>
   </g>
   <g id="patch_204">
    <path d="M 30.103125 7.2 
L 364.903125 7.2 
" style="fill:none;stroke:#000000;stroke-linecap:square;stroke-linejoin:miter;stroke-width:0.8;"/>
   </g>
   <g id="legend_1">
    <g id="patch_205">
     <path d="M 201.03125 73.9125 
L 357.903125 73.9125 
Q 359.903125 73.9125 359.903125 71.9125 
L 359.903125 14.2 
Q 359.903125 12.2 357.903125 12.2 
L 201.03125 12.2 
Q 199.03125 12.2 199.03125 14.2 
L 199.03125 71.9125 
Q 199.03125 73.9125 201.03125 73.9125 
z
" style="fill:#ffffff;opacity:0.8;stroke:#cccccc;stroke-linejoin:miter;"/>
    </g>
    <g id="line2d_14">
     <path d="M 203.03125 20.298437 
L 223.03125 20.298437 
" style="fill:none;stroke:#000000;stroke-linecap:square;stroke-width:1.5;"/>
    </g>
    <g id="line2d_15"/>
    <g id="text_13">
     <!-- Fitted Latent Distribution -->
     <g transform="translate(231.03125 23.798437)scale(0.1 -0.1)">
      <defs>
       <path d="M 9.8125 72.90625 
L 51.703125 72.90625 
L 51.703125 64.59375 
L 19.671875 64.59375 
L 19.671875 43.109375 
L 48.578125 43.109375 
L 48.578125 34.8125 
L 19.671875 34.8125 
L 19.671875 0 
L 9.8125 0 
z
" id="DejaVuSans-70"/>
       <path d="M 9.421875 54.6875 
L 18.40625 54.6875 
L 18.40625 0 
L 9.421875 0 
z
M 9.421875 75.984375 
L 18.40625 75.984375 
L 18.40625 64.59375 
L 9.421875 64.59375 
z
" id="DejaVuSans-105"/>
       <path d="M 18.3125 70.21875 
L 18.3125 54.6875 
L 36.8125 54.6875 
L 36.8125 47.703125 
L 18.3125 47.703125 
L 18.3125 18.015625 
Q 18.3125 11.328125 20.140625 9.421875 
Q 21.96875 7.515625 27.59375 7.515625 
L 36.8125 7.515625 
L 36.8125 0 
L 27.59375 0 
Q 17.1875 0 13.234375 3.875 
Q 9.28125 7.765625 9.28125 18.015625 
L 9.28125 47.703125 
L 2.6875 47.703125 
L 2.6875 54.6875 
L 9.28125 54.6875 
L 9.28125 70.21875 
z
" id="DejaVuSans-116"/>
       <path d="M 56.203125 29.59375 
L 56.203125 25.203125 
L 14.890625 25.203125 
Q 15.484375 15.921875 20.484375 11.0625 
Q 25.484375 6.203125 34.421875 6.203125 
Q 39.59375 6.203125 44.453125 7.46875 
Q 49.3125 8.734375 54.109375 11.28125 
L 54.109375 2.78125 
Q 49.265625 0.734375 44.1875 -0.34375 
Q 39.109375 -1.421875 33.890625 -1.421875 
Q 20.796875 -1.421875 13.15625 6.1875 
Q 5.515625 13.8125 5.515625 26.8125 
Q 5.515625 40.234375 12.765625 48.109375 
Q 20.015625 56 32.328125 56 
Q 43.359375 56 49.78125 48.890625 
Q 56.203125 41.796875 56.203125 29.59375 
z
M 47.21875 32.234375 
Q 47.125 39.59375 43.09375 43.984375 
Q 39.0625 48.390625 32.421875 48.390625 
Q 24.90625 48.390625 20.390625 44.140625 
Q 15.875 39.890625 15.1875 32.171875 
z
" id="DejaVuSans-101"/>
       <path d="M 45.40625 46.390625 
L 45.40625 75.984375 
L 54.390625 75.984375 
L 54.390625 0 
L 45.40625 0 
L 45.40625 8.203125 
Q 42.578125 3.328125 38.25 0.953125 
Q 33.9375 -1.421875 27.875 -1.421875 
Q 17.96875 -1.421875 11.734375 6.484375 
Q 5.515625 14.40625 5.515625 27.296875 
Q 5.515625 40.1875 11.734375 48.09375 
Q 17.96875 56 27.875 56 
Q 33.9375 56 38.25 53.625 
Q 42.578125 51.265625 45.40625 46.390625 
z
M 14.796875 27.296875 
Q 14.796875 17.390625 18.875 11.75 
Q 22.953125 6.109375 30.078125 6.109375 
Q 37.203125 6.109375 41.296875 11.75 
Q 45.40625 17.390625 45.40625 27.296875 
Q 45.40625 37.203125 41.296875 42.84375 
Q 37.203125 48.484375 30.078125 48.484375 
Q 22.953125 48.484375 18.875 42.84375 
Q 14.796875 37.203125 14.796875 27.296875 
z
" id="DejaVuSans-100"/>
       <path id="DejaVuSans-32"/>
       <path d="M 9.8125 72.90625 
L 19.671875 72.90625 
L 19.671875 8.296875 
L 55.171875 8.296875 
L 55.171875 0 
L 9.8125 0 
z
" id="DejaVuSans-76"/>
       <path d="M 34.28125 27.484375 
Q 23.390625 27.484375 19.1875 25 
Q 14.984375 22.515625 14.984375 16.5 
Q 14.984375 11.71875 18.140625 8.90625 
Q 21.296875 6.109375 26.703125 6.109375 
Q 34.1875 6.109375 38.703125 11.40625 
Q 43.21875 16.703125 43.21875 25.484375 
L 43.21875 27.484375 
z
M 52.203125 31.203125 
L 52.203125 0 
L 43.21875 0 
L 43.21875 8.296875 
Q 40.140625 3.328125 35.546875 0.953125 
Q 30.953125 -1.421875 24.3125 -1.421875 
Q 15.921875 -1.421875 10.953125 3.296875 
Q 6 8.015625 6 15.921875 
Q 6 25.140625 12.171875 29.828125 
Q 18.359375 34.515625 30.609375 34.515625 
L 43.21875 34.515625 
L 43.21875 35.40625 
Q 43.21875 41.609375 39.140625 45 
Q 35.0625 48.390625 27.6875 48.390625 
Q 23 48.390625 18.546875 47.265625 
Q 14.109375 46.140625 10.015625 43.890625 
L 10.015625 52.203125 
Q 14.9375 54.109375 19.578125 55.046875 
Q 24.21875 56 28.609375 56 
Q 40.484375 56 46.34375 49.84375 
Q 52.203125 43.703125 52.203125 31.203125 
z
" id="DejaVuSans-97"/>
       <path d="M 54.890625 33.015625 
L 54.890625 0 
L 45.90625 0 
L 45.90625 32.71875 
Q 45.90625 40.484375 42.875 44.328125 
Q 39.84375 48.1875 33.796875 48.1875 
Q 26.515625 48.1875 22.3125 43.546875 
Q 18.109375 38.921875 18.109375 30.90625 
L 18.109375 0 
L 9.078125 0 
L 9.078125 54.6875 
L 18.109375 54.6875 
L 18.109375 46.1875 
Q 21.34375 51.125 25.703125 53.5625 
Q 30.078125 56 35.796875 56 
Q 45.21875 56 50.046875 50.171875 
Q 54.890625 44.34375 54.890625 33.015625 
z
" id="DejaVuSans-110"/>
       <path d="M 19.671875 64.796875 
L 19.671875 8.109375 
L 31.59375 8.109375 
Q 46.6875 8.109375 53.6875 14.9375 
Q 60.6875 21.78125 60.6875 36.53125 
Q 60.6875 51.171875 53.6875 57.984375 
Q 46.6875 64.796875 31.59375 64.796875 
z
M 9.8125 72.90625 
L 30.078125 72.90625 
Q 51.265625 72.90625 61.171875 64.09375 
Q 71.09375 55.28125 71.09375 36.53125 
Q 71.09375 17.671875 61.125 8.828125 
Q 51.171875 0 30.078125 0 
L 9.8125 0 
z
" id="DejaVuSans-68"/>
       <path d="M 44.28125 53.078125 
L 44.28125 44.578125 
Q 40.484375 46.53125 36.375 47.5 
Q 32.28125 48.484375 27.875 48.484375 
Q 21.1875 48.484375 17.84375 46.4375 
Q 14.5 44.390625 14.5 40.28125 
Q 14.5 37.15625 16.890625 35.375 
Q 19.28125 33.59375 26.515625 31.984375 
L 29.59375 31.296875 
Q 39.15625 29.25 43.1875 25.515625 
Q 47.21875 21.78125 47.21875 15.09375 
Q 47.21875 7.46875 41.1875 3.015625 
Q 35.15625 -1.421875 24.609375 -1.421875 
Q 20.21875 -1.421875 15.453125 -0.5625 
Q 10.6875 0.296875 5.421875 2 
L 5.421875 11.28125 
Q 10.40625 8.6875 15.234375 7.390625 
Q 20.0625 6.109375 24.8125 6.109375 
Q 31.15625 6.109375 34.5625 8.28125 
Q 37.984375 10.453125 37.984375 14.40625 
Q 37.984375 18.0625 35.515625 20.015625 
Q 33.0625 21.96875 24.703125 23.78125 
L 21.578125 24.515625 
Q 13.234375 26.265625 9.515625 29.90625 
Q 5.8125 33.546875 5.8125 39.890625 
Q 5.8125 47.609375 11.28125 51.796875 
Q 16.75 56 26.8125 56 
Q 31.78125 56 36.171875 55.265625 
Q 40.578125 54.546875 44.28125 53.078125 
z
" id="DejaVuSans-115"/>
       <path d="M 41.109375 46.296875 
Q 39.59375 47.171875 37.8125 47.578125 
Q 36.03125 48 33.890625 48 
Q 26.265625 48 22.1875 43.046875 
Q 18.109375 38.09375 18.109375 28.8125 
L 18.109375 0 
L 9.078125 0 
L 9.078125 54.6875 
L 18.109375 54.6875 
L 18.109375 46.1875 
Q 20.953125 51.171875 25.484375 53.578125 
Q 30.03125 56 36.53125 56 
Q 37.453125 56 38.578125 55.875 
Q 39.703125 55.765625 41.0625 55.515625 
z
" id="DejaVuSans-114"/>
       <path d="M 48.6875 27.296875 
Q 48.6875 37.203125 44.609375 42.84375 
Q 40.53125 48.484375 33.40625 48.484375 
Q 26.265625 48.484375 22.1875 42.84375 
Q 18.109375 37.203125 18.109375 27.296875 
Q 18.109375 17.390625 22.1875 11.75 
Q 26.265625 6.109375 33.40625 6.109375 
Q 40.53125 6.109375 44.609375 11.75 
Q 48.6875 17.390625 48.6875 27.296875 
z
M 18.109375 46.390625 
Q 20.953125 51.265625 25.265625 53.625 
Q 29.59375 56 35.59375 56 
Q 45.5625 56 51.78125 48.09375 
Q 58.015625 40.1875 58.015625 27.296875 
Q 58.015625 14.40625 51.78125 6.484375 
Q 45.5625 -1.421875 35.59375 -1.421875 
Q 29.59375 -1.421875 25.265625 0.953125 
Q 20.953125 3.328125 18.109375 8.203125 
L 18.109375 0 
L 9.078125 0 
L 9.078125 75.984375 
L 18.109375 75.984375 
z
" id="DejaVuSans-98"/>
       <path d="M 8.5 21.578125 
L 8.5 54.6875 
L 17.484375 54.6875 
L 17.484375 21.921875 
Q 17.484375 14.15625 20.5 10.265625 
Q 23.53125 6.390625 29.59375 6.390625 
Q 36.859375 6.390625 41.078125 11.03125 
Q 45.3125 15.671875 45.3125 23.6875 
L 45.3125 54.6875 
L 54.296875 54.6875 
L 54.296875 0 
L 45.3125 0 
L 45.3125 8.40625 
Q 42.046875 3.421875 37.71875 1 
Q 33.40625 -1.421875 27.6875 -1.421875 
Q 18.265625 -1.421875 13.375 4.4375 
Q 8.5 10.296875 8.5 21.578125 
z
M 31.109375 56 
z
" id="DejaVuSans-117"/>
       <path d="M 30.609375 48.390625 
Q 23.390625 48.390625 19.1875 42.75 
Q 14.984375 37.109375 14.984375 27.296875 
Q 14.984375 17.484375 19.15625 11.84375 
Q 23.34375 6.203125 30.609375 6.203125 
Q 37.796875 6.203125 41.984375 11.859375 
Q 46.1875 17.53125 46.1875 27.296875 
Q 46.1875 37.015625 41.984375 42.703125 
Q 37.796875 48.390625 30.609375 48.390625 
z
M 30.609375 56 
Q 42.328125 56 49.015625 48.375 
Q 55.71875 40.765625 55.71875 27.296875 
Q 55.71875 13.875 49.015625 6.21875 
Q 42.328125 -1.421875 30.609375 -1.421875 
Q 18.84375 -1.421875 12.171875 6.21875 
Q 5.515625 13.875 5.515625 27.296875 
Q 5.515625 40.765625 12.171875 48.375 
Q 18.84375 56 30.609375 56 
z
" id="DejaVuSans-111"/>
      </defs>
      <use xlink:href="#DejaVuSans-70"/>
      <use x="50.269531" xlink:href="#DejaVuSans-105"/>
      <use x="78.052734" xlink:href="#DejaVuSans-116"/>
      <use x="117.261719" xlink:href="#DejaVuSans-116"/>
      <use x="156.470703" xlink:href="#DejaVuSans-101"/>
      <use x="217.994141" xlink:href="#DejaVuSans-100"/>
      <use x="281.470703" xlink:href="#DejaVuSans-32"/>
      <use x="313.257812" xlink:href="#DejaVuSans-76"/>
      <use x="368.970703" xlink:href="#DejaVuSans-97"/>
      <use x="430.25" xlink:href="#DejaVuSans-116"/>
      <use x="469.458984" xlink:href="#DejaVuSans-101"/>
      <use x="530.982422" xlink:href="#DejaVuSans-110"/>
      <use x="594.361328" xlink:href="#DejaVuSans-116"/>
      <use x="633.570312" xlink:href="#DejaVuSans-32"/>
      <use x="665.357422" xlink:href="#DejaVuSans-68"/>
      <use x="742.359375" xlink:href="#DejaVuSans-105"/>
      <use x="770.142578" xlink:href="#DejaVuSans-115"/>
      <use x="822.242188" xlink:href="#DejaVuSans-116"/>
      <use x="861.451172" xlink:href="#DejaVuSans-114"/>
      <use x="902.564453" xlink:href="#DejaVuSans-105"/>
      <use x="930.347656" xlink:href="#DejaVuSans-98"/>
      <use x="993.824219" xlink:href="#DejaVuSans-117"/>
      <use x="1057.203125" xlink:href="#DejaVuSans-116"/>
      <use x="1096.412109" xlink:href="#DejaVuSans-105"/>
      <use x="1124.195312" xlink:href="#DejaVuSans-111"/>
      <use x="1185.376953" xlink:href="#DejaVuSans-110"/>
     </g>
    </g>
    <g id="patch_206">
     <path d="M 203.03125 38.476562 
L 223.03125 38.476562 
L 223.03125 31.476562 
L 203.03125 31.476562 
z
" style="fill:#1f77b4;opacity:0.3;"/>
    </g>
    <g id="text_14">
     <!-- Latent Samples -->
     <g transform="translate(231.03125 38.476562)scale(0.1 -0.1)">
      <defs>
       <path d="M 53.515625 70.515625 
L 53.515625 60.890625 
Q 47.90625 63.578125 42.921875 64.890625 
Q 37.9375 66.21875 33.296875 66.21875 
Q 25.25 66.21875 20.875 63.09375 
Q 16.5 59.96875 16.5 54.203125 
Q 16.5 49.359375 19.40625 46.890625 
Q 22.3125 44.4375 30.421875 42.921875 
L 36.375 41.703125 
Q 47.40625 39.59375 52.65625 34.296875 
Q 57.90625 29 57.90625 20.125 
Q 57.90625 9.515625 50.796875 4.046875 
Q 43.703125 -1.421875 29.984375 -1.421875 
Q 24.8125 -1.421875 18.96875 -0.25 
Q 13.140625 0.921875 6.890625 3.21875 
L 6.890625 13.375 
Q 12.890625 10.015625 18.65625 8.296875 
Q 24.421875 6.59375 29.984375 6.59375 
Q 38.421875 6.59375 43.015625 9.90625 
Q 47.609375 13.234375 47.609375 19.390625 
Q 47.609375 24.75 44.3125 27.78125 
Q 41.015625 30.8125 33.5 32.328125 
L 27.484375 33.5 
Q 16.453125 35.6875 11.515625 40.375 
Q 6.59375 45.0625 6.59375 53.421875 
Q 6.59375 63.09375 13.40625 68.65625 
Q 20.21875 74.21875 32.171875 74.21875 
Q 37.3125 74.21875 42.625 73.28125 
Q 47.953125 72.359375 53.515625 70.515625 
z
" id="DejaVuSans-83"/>
       <path d="M 52 44.1875 
Q 55.375 50.25 60.0625 53.125 
Q 64.75 56 71.09375 56 
Q 79.640625 56 84.28125 50.015625 
Q 88.921875 44.046875 88.921875 33.015625 
L 88.921875 0 
L 79.890625 0 
L 79.890625 32.71875 
Q 79.890625 40.578125 77.09375 44.375 
Q 74.3125 48.1875 68.609375 48.1875 
Q 61.625 48.1875 57.5625 43.546875 
Q 53.515625 38.921875 53.515625 30.90625 
L 53.515625 0 
L 44.484375 0 
L 44.484375 32.71875 
Q 44.484375 40.625 41.703125 44.40625 
Q 38.921875 48.1875 33.109375 48.1875 
Q 26.21875 48.1875 22.15625 43.53125 
Q 18.109375 38.875 18.109375 30.90625 
L 18.109375 0 
L 9.078125 0 
L 9.078125 54.6875 
L 18.109375 54.6875 
L 18.109375 46.1875 
Q 21.1875 51.21875 25.484375 53.609375 
Q 29.78125 56 35.6875 56 
Q 41.65625 56 45.828125 52.96875 
Q 50 49.953125 52 44.1875 
z
" id="DejaVuSans-109"/>
       <path d="M 18.109375 8.203125 
L 18.109375 -20.796875 
L 9.078125 -20.796875 
L 9.078125 54.6875 
L 18.109375 54.6875 
L 18.109375 46.390625 
Q 20.953125 51.265625 25.265625 53.625 
Q 29.59375 56 35.59375 56 
Q 45.5625 56 51.78125 48.09375 
Q 58.015625 40.1875 58.015625 27.296875 
Q 58.015625 14.40625 51.78125 6.484375 
Q 45.5625 -1.421875 35.59375 -1.421875 
Q 29.59375 -1.421875 25.265625 0.953125 
Q 20.953125 3.328125 18.109375 8.203125 
z
M 48.6875 27.296875 
Q 48.6875 37.203125 44.609375 42.84375 
Q 40.53125 48.484375 33.40625 48.484375 
Q 26.265625 48.484375 22.1875 42.84375 
Q 18.109375 37.203125 18.109375 27.296875 
Q 18.109375 17.390625 22.1875 11.75 
Q 26.265625 6.109375 33.40625 6.109375 
Q 40.53125 6.109375 44.609375 11.75 
Q 48.6875 17.390625 48.6875 27.296875 
z
" id="DejaVuSans-112"/>
       <path d="M 9.421875 75.984375 
L 18.40625 75.984375 
L 18.40625 0 
L 9.421875 0 
z
" id="DejaVuSans-108"/>
      </defs>
      <use xlink:href="#DejaVuSans-76"/>
      <use x="55.712891" xlink:href="#DejaVuSans-97"/>
      <use x="116.992188" xlink:href="#DejaVuSans-116"/>
      <use x="156.201172" xlink:href="#DejaVuSans-101"/>
      <use x="217.724609" xlink:href="#DejaVuSans-110"/>
      <use x="281.103516" xlink:href="#DejaVuSans-116"/>
      <use x="320.3125" xlink:href="#DejaVuSans-32"/>
      <use x="352.099609" xlink:href="#DejaVuSans-83"/>
      <use x="415.576172" xlink:href="#DejaVuSans-97"/>
      <use x="476.855469" xlink:href="#DejaVuSans-109"/>
      <use x="574.267578" xlink:href="#DejaVuSans-112"/>
      <use x="637.744141" xlink:href="#DejaVuSans-108"/>
      <use x="665.527344" xlink:href="#DejaVuSans-101"/>
      <use x="727.050781" xlink:href="#DejaVuSans-115"/>
     </g>
    </g>
    <g id="patch_207">
     <path d="M 203.03125 53.154687 
L 223.03125 53.154687 
L 223.03125 46.154687 
L 203.03125 46.154687 
z
" style="fill:#ff7f0e;opacity:0.3;"/>
    </g>
    <g id="text_15">
     <!-- Observed Samples -->
     <g transform="translate(231.03125 53.154687)scale(0.1 -0.1)">
      <defs>
       <path d="M 39.40625 66.21875 
Q 28.65625 66.21875 22.328125 58.203125 
Q 16.015625 50.203125 16.015625 36.375 
Q 16.015625 22.609375 22.328125 14.59375 
Q 28.65625 6.59375 39.40625 6.59375 
Q 50.140625 6.59375 56.421875 14.59375 
Q 62.703125 22.609375 62.703125 36.375 
Q 62.703125 50.203125 56.421875 58.203125 
Q 50.140625 66.21875 39.40625 66.21875 
z
M 39.40625 74.21875 
Q 54.734375 74.21875 63.90625 63.9375 
Q 73.09375 53.65625 73.09375 36.375 
Q 73.09375 19.140625 63.90625 8.859375 
Q 54.734375 -1.421875 39.40625 -1.421875 
Q 24.03125 -1.421875 14.8125 8.828125 
Q 5.609375 19.09375 5.609375 36.375 
Q 5.609375 53.65625 14.8125 63.9375 
Q 24.03125 74.21875 39.40625 74.21875 
z
" id="DejaVuSans-79"/>
       <path d="M 2.984375 54.6875 
L 12.5 54.6875 
L 29.59375 8.796875 
L 46.6875 54.6875 
L 56.203125 54.6875 
L 35.6875 0 
L 23.484375 0 
z
" id="DejaVuSans-118"/>
      </defs>
      <use xlink:href="#DejaVuSans-79"/>
      <use x="78.710938" xlink:href="#DejaVuSans-98"/>
      <use x="142.1875" xlink:href="#DejaVuSans-115"/>
      <use x="194.287109" xlink:href="#DejaVuSans-101"/>
      <use x="255.810547" xlink:href="#DejaVuSans-114"/>
      <use x="296.923828" xlink:href="#DejaVuSans-118"/>
      <use x="356.103516" xlink:href="#DejaVuSans-101"/>
      <use x="417.626953" xlink:href="#DejaVuSans-100"/>
      <use x="481.103516" xlink:href="#DejaVuSans-32"/>
      <use x="512.890625" xlink:href="#DejaVuSans-83"/>
      <use x="576.367188" xlink:href="#DejaVuSans-97"/>
      <use x="637.646484" xlink:href="#DejaVuSans-109"/>
      <use x="735.058594" xlink:href="#DejaVuSans-112"/>
      <use x="798.535156" xlink:href="#DejaVuSans-108"/>
      <use x="826.318359" xlink:href="#DejaVuSans-101"/>
      <use x="887.841797" xlink:href="#DejaVuSans-115"/>
     </g>
    </g>
    <g id="patch_208">
     <path d="M 203.03125 67.832812 
L 223.03125 67.832812 
L 223.03125 60.832812 
L 203.03125 60.832812 
z
" style="opacity:0.3;stroke:#000000;stroke-linejoin:miter;"/>
    </g>
    <g id="text_16">
     <!-- 90% Confidence Interval -->
     <g transform="translate(231.03125 67.832812)scale(0.1 -0.1)">
      <defs>
       <path d="M 10.984375 1.515625 
L 10.984375 10.5 
Q 14.703125 8.734375 18.5 7.8125 
Q 22.3125 6.890625 25.984375 6.890625 
Q 35.75 6.890625 40.890625 13.453125 
Q 46.046875 20.015625 46.78125 33.40625 
Q 43.953125 29.203125 39.59375 26.953125 
Q 35.25 24.703125 29.984375 24.703125 
Q 19.046875 24.703125 12.671875 31.3125 
Q 6.296875 37.9375 6.296875 49.421875 
Q 6.296875 60.640625 12.9375 67.421875 
Q 19.578125 74.21875 30.609375 74.21875 
Q 43.265625 74.21875 49.921875 64.515625 
Q 56.59375 54.828125 56.59375 36.375 
Q 56.59375 19.140625 48.40625 8.859375 
Q 40.234375 -1.421875 26.421875 -1.421875 
Q 22.703125 -1.421875 18.890625 -0.6875 
Q 15.09375 0.046875 10.984375 1.515625 
z
M 30.609375 32.421875 
Q 37.25 32.421875 41.125 36.953125 
Q 45.015625 41.5 45.015625 49.421875 
Q 45.015625 57.28125 41.125 61.84375 
Q 37.25 66.40625 30.609375 66.40625 
Q 23.96875 66.40625 20.09375 61.84375 
Q 16.21875 57.28125 16.21875 49.421875 
Q 16.21875 41.5 20.09375 36.953125 
Q 23.96875 32.421875 30.609375 32.421875 
z
" id="DejaVuSans-57"/>
       <path d="M 72.703125 32.078125 
Q 68.453125 32.078125 66.03125 28.46875 
Q 63.625 24.859375 63.625 18.40625 
Q 63.625 12.0625 66.03125 8.421875 
Q 68.453125 4.78125 72.703125 4.78125 
Q 76.859375 4.78125 79.265625 8.421875 
Q 81.6875 12.0625 81.6875 18.40625 
Q 81.6875 24.8125 79.265625 28.4375 
Q 76.859375 32.078125 72.703125 32.078125 
z
M 72.703125 38.28125 
Q 80.421875 38.28125 84.953125 32.90625 
Q 89.5 27.546875 89.5 18.40625 
Q 89.5 9.28125 84.9375 3.921875 
Q 80.375 -1.421875 72.703125 -1.421875 
Q 64.890625 -1.421875 60.34375 3.921875 
Q 55.8125 9.28125 55.8125 18.40625 
Q 55.8125 27.59375 60.375 32.9375 
Q 64.9375 38.28125 72.703125 38.28125 
z
M 22.3125 68.015625 
Q 18.109375 68.015625 15.6875 64.375 
Q 13.28125 60.75 13.28125 54.390625 
Q 13.28125 47.953125 15.671875 44.328125 
Q 18.0625 40.71875 22.3125 40.71875 
Q 26.5625 40.71875 28.96875 44.328125 
Q 31.390625 47.953125 31.390625 54.390625 
Q 31.390625 60.6875 28.953125 64.34375 
Q 26.515625 68.015625 22.3125 68.015625 
z
M 66.40625 74.21875 
L 74.21875 74.21875 
L 28.609375 -1.421875 
L 20.796875 -1.421875 
z
M 22.3125 74.21875 
Q 30.03125 74.21875 34.609375 68.875 
Q 39.203125 63.53125 39.203125 54.390625 
Q 39.203125 45.171875 34.640625 39.84375 
Q 30.078125 34.515625 22.3125 34.515625 
Q 14.546875 34.515625 10.03125 39.859375 
Q 5.515625 45.21875 5.515625 54.390625 
Q 5.515625 63.484375 10.046875 68.84375 
Q 14.59375 74.21875 22.3125 74.21875 
z
" id="DejaVuSans-37"/>
       <path d="M 64.40625 67.28125 
L 64.40625 56.890625 
Q 59.421875 61.53125 53.78125 63.8125 
Q 48.140625 66.109375 41.796875 66.109375 
Q 29.296875 66.109375 22.65625 58.46875 
Q 16.015625 50.828125 16.015625 36.375 
Q 16.015625 21.96875 22.65625 14.328125 
Q 29.296875 6.6875 41.796875 6.6875 
Q 48.140625 6.6875 53.78125 8.984375 
Q 59.421875 11.28125 64.40625 15.921875 
L 64.40625 5.609375 
Q 59.234375 2.09375 53.4375 0.328125 
Q 47.65625 -1.421875 41.21875 -1.421875 
Q 24.65625 -1.421875 15.125 8.703125 
Q 5.609375 18.84375 5.609375 36.375 
Q 5.609375 53.953125 15.125 64.078125 
Q 24.65625 74.21875 41.21875 74.21875 
Q 47.75 74.21875 53.53125 72.484375 
Q 59.328125 70.75 64.40625 67.28125 
z
" id="DejaVuSans-67"/>
       <path d="M 37.109375 75.984375 
L 37.109375 68.5 
L 28.515625 68.5 
Q 23.6875 68.5 21.796875 66.546875 
Q 19.921875 64.59375 19.921875 59.515625 
L 19.921875 54.6875 
L 34.71875 54.6875 
L 34.71875 47.703125 
L 19.921875 47.703125 
L 19.921875 0 
L 10.890625 0 
L 10.890625 47.703125 
L 2.296875 47.703125 
L 2.296875 54.6875 
L 10.890625 54.6875 
L 10.890625 58.5 
Q 10.890625 67.625 15.140625 71.796875 
Q 19.390625 75.984375 28.609375 75.984375 
z
" id="DejaVuSans-102"/>
       <path d="M 48.78125 52.59375 
L 48.78125 44.1875 
Q 44.96875 46.296875 41.140625 47.34375 
Q 37.3125 48.390625 33.40625 48.390625 
Q 24.65625 48.390625 19.8125 42.84375 
Q 14.984375 37.3125 14.984375 27.296875 
Q 14.984375 17.28125 19.8125 11.734375 
Q 24.65625 6.203125 33.40625 6.203125 
Q 37.3125 6.203125 41.140625 7.25 
Q 44.96875 8.296875 48.78125 10.40625 
L 48.78125 2.09375 
Q 45.015625 0.34375 40.984375 -0.53125 
Q 36.96875 -1.421875 32.421875 -1.421875 
Q 20.0625 -1.421875 12.78125 6.34375 
Q 5.515625 14.109375 5.515625 27.296875 
Q 5.515625 40.671875 12.859375 48.328125 
Q 20.21875 56 33.015625 56 
Q 37.15625 56 41.109375 55.140625 
Q 45.0625 54.296875 48.78125 52.59375 
z
" id="DejaVuSans-99"/>
       <path d="M 9.8125 72.90625 
L 19.671875 72.90625 
L 19.671875 0 
L 9.8125 0 
z
" id="DejaVuSans-73"/>
      </defs>
      <use xlink:href="#DejaVuSans-57"/>
      <use x="63.623047" xlink:href="#DejaVuSans-48"/>
      <use x="127.246094" xlink:href="#DejaVuSans-37"/>
      <use x="222.265625" xlink:href="#DejaVuSans-32"/>
      <use x="254.052734" xlink:href="#DejaVuSans-67"/>
      <use x="323.876953" xlink:href="#DejaVuSans-111"/>
      <use x="385.058594" xlink:href="#DejaVuSans-110"/>
      <use x="448.4375" xlink:href="#DejaVuSans-102"/>
      <use x="483.642578" xlink:href="#DejaVuSans-105"/>
      <use x="511.425781" xlink:href="#DejaVuSans-100"/>
      <use x="574.902344" xlink:href="#DejaVuSans-101"/>
      <use x="636.425781" xlink:href="#DejaVuSans-110"/>
      <use x="699.804688" xlink:href="#DejaVuSans-99"/>
      <use x="754.785156" xlink:href="#DejaVuSans-101"/>
      <use x="816.308594" xlink:href="#DejaVuSans-32"/>
      <use x="848.095703" xlink:href="#DejaVuSans-73"/>
      <use x="877.587891" xlink:href="#DejaVuSans-110"/>
      <use x="940.966797" xlink:href="#DejaVuSans-116"/>
      <use x="980.175781" xlink:href="#DejaVuSans-101"/>
      <use x="1041.699219" xlink:href="#DejaVuSans-114"/>
      <use x="1082.8125" xlink:href="#DejaVuSans-118"/>
      <use x="1141.992188" xlink:href="#DejaVuSans-97"/>
      <use x="1203.271484" xlink:href="#DejaVuSans-108"/>
     </g>
    </g>
   </g>
  </g>
 </g>
 <defs>
  <clipPath id="p33e265bd89">
   <rect height="217.44" width="334.8" x="30.103125" y="7.2"/>
  </clipPath>
 </defs>
</svg>
